<?xml version="1.0" encoding="utf-8"?><svg xmlns="http://www.w3.org/2000/svg" xmlns:xlink="http://www.w3.org/1999/xlink"><symbol viewBox="0 0 24 24" id="add_alt_icon_24" xmlns="http://www.w3.org/2000/svg"><path clip-rule="evenodd" d="M12 20a8 8 0 100-16 8 8 0 000 16zm10-8c0 5.523-4.477 10-10 10S2 17.523 2 12 6.477 2 12 2s10 4.477 10 10zM11.5 8.5a.5.5 0 011 0v3h3a.5.5 0 010 1h-3v3a.5.5 0 01-1 0v-3h-3a.5.5 0 010-1h3v-3z"/></symbol><symbol viewBox="0 0 24 24" id="add_icon_24" xmlns="http://www.w3.org/2000/svg"><path clip-rule="evenodd" d="M13 5a1 1 0 10-2 0v6H5a1 1 0 100 2h6v6a1 1 0 102 0v-6h6a1 1 0 100-2h-6V5z"/></symbol><symbol viewBox="0 0 24 24" id="admin_icon_24" xmlns="http://www.w3.org/2000/svg"><path d="M12 14a1 1 0 100-2 1 1 0 000 2z"/><path clip-rule="evenodd" d="M16.424 9.17L12 .875 7.576 9.17 1.849 6.306l1.154 13.268c.023.32.201.623.5.794.084.048.17.095.259.14C5.157 21.387 8.32 22 12 22c3.68 0 6.844-.613 8.24-1.492a6.76 6.76 0 00.256-.14 1 1 0 00.501-.796l1.154-13.266-5.727 2.864zm2.705 8.804l.72-8.28-4.273 2.136L12 5.125 8.424 11.83 4.15 9.694l.72 8.28C6.517 17.38 9.098 17 12 17c2.902 0 5.483.381 7.129.974zm-.264.968C17.251 19.617 14.692 20 12 20s-5.25-.383-6.865-1.058c.225-.084.482-.166.769-.246C7.423 18.274 9.579 18 12 18c2.421 0 4.577.274 6.096.696.287.08.544.162.77.246z"/></symbol><symbol viewBox="0 0 24 24" id="age_verify_icon_24" xmlns="http://www.w3.org/2000/svg"><path clip-rule="evenodd" d="M14 11a3 3 0 100-6 3 3 0 000 6zm5-3A5 5 0 119 8a5 5 0 0110 0zm-5 5a8 8 0 00-8 8h2a6 6 0 0112 0h2a8 8 0 00-8-8zm-7.697-2.232a.5.5 0 11.707.707L3.475 15.01a.5.5 0 01-.707 0l-1.415-1.414a.5.5 0 01.708-.707l1.06 1.06 3.182-3.181z"/></symbol><symbol viewBox="0 0 24 24" id="align_center_icon_24" xmlns="http://www.w3.org/2000/svg"><path clip-rule="evenodd" d="M20 7a1 1 0 01-1 1H5a1 1 0 110-2h14a1 1 0 011 1zm-4 5a1 1 0 01-1 1H9a1 1 0 110-2h6a1 1 0 011 1zm1 6a1 1 0 100-2H7a1 1 0 100 2h10z"/></symbol><symbol viewBox="0 0 24 24" id="align_left_icon_24" xmlns="http://www.w3.org/2000/svg"><path clip-rule="evenodd" d="M20 7a1 1 0 01-1 1H5a1 1 0 110-2h14a1 1 0 011 1zm-8 5a1 1 0 01-1 1H5a1 1 0 110-2h6a1 1 0 011 1zm2 6a1 1 0 100-2H5a1 1 0 100 2h9z"/></symbol><symbol viewBox="0 0 24 24" id="align_right_icon_24" xmlns="http://www.w3.org/2000/svg"><path clip-rule="evenodd" d="M9 17a1 1 0 011-1h9a1 1 0 110 2h-9a1 1 0 01-1-1zm3-5a1 1 0 011-1h6a1 1 0 110 2h-6a1 1 0 01-1-1zM5 6a1 1 0 100 2h14a1 1 0 100-2H5z"/></symbol><symbol viewBox="0 0 24 24" id="analysis_icon_24" xmlns="http://www.w3.org/2000/svg"><path clip-rule="evenodd" d="M3 18V4h2v14h16v2H5a2 2 0 01-2-2zm6-7v3h2v-3H9zM8 9a1 1 0 00-1 1v5a1 1 0 001 1h4a1 1 0 001-1v-5a1 1 0 00-1-1H8zm11 5h-2V6h2v8zm-4-9a1 1 0 011-1h4a1 1 0 011 1v10a1 1 0 01-1 1h-4a1 1 0 01-1-1V5z"/></symbol><symbol viewBox="0 0 24 24" id="arrow_down_icon_24" xmlns="http://www.w3.org/2000/svg"><path clip-rule="evenodd" d="M6.293 9.277a1.042 1.042 0 011.414 0L12 13.33l4.293-4.053a1.042 1.042 0 011.414 0c.39.368.39.966 0 1.335L12 16l-5.707-5.388a.907.907 0 010-1.335z"/></symbol><symbol viewBox="0 0 24 24" id="arrow_left_icon_24" xmlns="http://www.w3.org/2000/svg"><path clip-rule="evenodd" d="M14.723 6.293c.37.39.37 1.024 0 1.414L10.67 12l4.053 4.293c.37.39.37 1.024 0 1.414a.907.907 0 01-1.335 0L8 12l5.388-5.707a.907.907 0 011.335 0z"/></symbol><symbol viewBox="0 0 24 24" id="arrow_right_icon_24" xmlns="http://www.w3.org/2000/svg"><path clip-rule="evenodd" d="M9.277 17.707a1.042 1.042 0 010-1.414L13.33 12 9.277 7.707a1.042 1.042 0 010-1.414.907.907 0 011.335 0L16 12l-5.388 5.707a.907.907 0 01-1.335 0z"/></symbol><symbol viewBox="0 0 24 24" id="arrow_up_icon_24" xmlns="http://www.w3.org/2000/svg"><path clip-rule="evenodd" d="M17.707 14.723a1.042 1.042 0 01-1.414 0L12 10.67l-4.293 4.053a1.042 1.042 0 01-1.414 0 .907.907 0 010-1.335L12 8l5.707 5.388c.39.369.39.967 0 1.335z"/></symbol><symbol viewBox="0 0 24 24" id="attachment_icon_24" xmlns="http://www.w3.org/2000/svg"><path clip-rule="evenodd" d="M12 10a2.5 2.5 0 002.5-2.5v-2H19v15H5v-15h8.5v2A1.5 1.5 0 0112.002 9h-.008l-.044-.003a1.958 1.958 0 01-.726-.195 1.256 1.256 0 01-.495-.423c-.127-.19-.229-.466-.229-.879a.5.5 0 00-1 0c0 .587.148 1.061.396 1.434.247.369.571.609.88.763a2.958 2.958 0 001.185.302h.025l.009.001h.002m.002 0zM12 1a2.5 2.5 0 012.5 2.5H21v19H5a2 2 0 01-2-2v-17h6.5A2.5 2.5 0 0112 1zm0 1a1.5 1.5 0 011.5 1.5h-3A1.5 1.5 0 0112 2zM7.5 13.5A.5.5 0 018 13h8a.5.5 0 010 1H8a.5.5 0 01-.5-.5zm0 3A.5.5 0 018 16h4a.5.5 0 010 1H8a.5.5 0 01-.5-.5z"/></symbol><symbol viewBox="0 0 24 24" id="attachment_icon_24-1" xmlns="http://www.w3.org/2000/svg"><path clip-rule="evenodd" d="M10.579 18.863l8.284-8.284a3.848 3.848 0 00-5.442-5.442l-.02-.02-.69.69a1.005 1.005 0 11-1.422-1.421l.69-.69a1.01 1.01 0 01.21-.162A5.858 5.858 0 0120.285 12L12 20.284A5.858 5.858 0 013.716 12l3.452-3.452a3.905 3.905 0 015.522 5.523l-1.901 1.902c-.041.067-.091.131-.15.19l-.69.69a1.005 1.005 0 01-1.421-1.422l-.02-.02 2.761-2.761a1.895 1.895 0 00-2.68-2.68L5.137 13.42a3.848 3.848 0 105.442 5.442z"/></symbol><symbol viewBox="0 0 24 24" id="automation_icon_24" xmlns="http://www.w3.org/2000/svg"><path clip-rule="evenodd" d="M14 3a2 2 0 11-4 0 2 2 0 014 0zm-2 1a1 1 0 100-2 1 1 0 000 2z"/><path d="M8 11a1 1 0 100-2 1 1 0 000 2zM17 10a1 1 0 11-2 0 1 1 0 012 0z"/><path clip-rule="evenodd" d="M12 15h4a5 5 0 000-10H8a5 5 0 000 10h4zm0 0a8.001 8.001 0 00-7.938 7h2.021a6.002 6.002 0 0111.834 0h2.021A8.001 8.001 0 0012 15zM8 7a3 3 0 000 6h8a3 3 0 100-6H8z"/></symbol><symbol viewBox="0 0 24 24" id="back_icon_24" xmlns="http://www.w3.org/2000/svg"><path clip-rule="evenodd" d="M12.485 6.343a1 1 0 00-1.414-1.414l-6.364 6.364L4 12l.707.707 6.364 6.364a1 1 0 001.414-1.415L7.828 13H20v-2H7.828l4.657-4.657z"/></symbol><symbol viewBox="0 0 24 24" id="basket_add_icon_24" xmlns="http://www.w3.org/2000/svg"><path clip-rule="evenodd" d="M9.5 5a.5.5 0 01-1 0 3.5 3.5 0 117 0 .5.5 0 01-1 0 2.5 2.5 0 00-5 0zm11.496 1H23l-.125 2-.758 12.125A2 2 0 0120.121 22H3.88a2 2 0 01-1.996-1.875L1.125 8 1 6H20.996zM3.88 20l-.75-12H20.87l-.75 12H3.88zm7.621-8.5a.5.5 0 011 0v2h2a.5.5 0 010 1h-2v2a.5.5 0 01-1 0v-2h-2a.5.5 0 010-1h2v-2z"/></symbol><symbol viewBox="0 0 24 24" id="basket_ok_icon_24" xmlns="http://www.w3.org/2000/svg"><path clip-rule="evenodd" d="M9 5.5a.5.5 0 00.5-.5 2.5 2.5 0 015 0 .5.5 0 001 0 3.5 3.5 0 10-7 0 .5.5 0 00.5.5zM23 6H1l.125 2 .758 12.125A2 2 0 003.879 22H20.12a2 2 0 001.996-1.875L22.875 8 23 6zM3.129 8l.75 12H20.12l.75-12H3.13zm11.174 3.768a.5.5 0 11.707.707l-3.535 3.535a.5.5 0 01-.707 0l-1.414-1.414a.5.5 0 11.707-.707l1.06 1.06 3.182-3.181z"/></symbol><symbol viewBox="0 0 24 24" id="basket_single_icon_24" xmlns="http://www.w3.org/2000/svg"><path clip-rule="evenodd" d="M9.5 5a.5.5 0 01-1 0 3.5 3.5 0 117 0 .5.5 0 01-1 0 2.5 2.5 0 00-5 0zM23 6H1l.125 2 .758 12.125A2 2 0 003.879 22H20.12a2 2 0 001.996-1.875L22.875 8 23 6zm-2.879 14l.75-12H3.13l.75 12H20.12zm-7.448-8.14h-1.686v.666h.75V16h.936v-4.14z"/></symbol><symbol viewBox="0 0 24 24" id="book_icon_24" xmlns="http://www.w3.org/2000/svg"><path clip-rule="evenodd" d="M1 3h7.074c1.413 0 2.66.427 3.56 1.281.132.125.254.256.366.394.112-.138.234-.27.365-.394C13.267 3.427 14.514 3 15.925 3H23v17h-8c-.534 0-1.353.217-2 .88-.565.581-1 1.503-1 2.92 0-1.417-.435-2.339-1-2.92-.647-.663-1.466-.88-2-.88H1V3zm20 15V5h-5.074c-1.014 0-1.73.301-2.185.733-.45.426-.741 1.07-.741 1.956v10.65c.594-.233 1.271-.339 2-.339h6zM11 7.689c0-.885-.291-1.53-.741-1.956C9.804 5.3 9.088 5 8.074 5H3v13h6c.729 0 1.406.106 2 .338V7.688z"/></symbol><symbol viewBox="0 0 24 24" id="bookmark_icon_24" xmlns="http://www.w3.org/2000/svg"><path clip-rule="evenodd" d="M3.311 2h11.154c.752 0 1.863.212 2.816.882 1.005.706 1.77 1.882 1.77 3.618v16.635l-7.003-5.836-7.049 5.824V6.5c0-1.282-.002-1.96-.05-2.389-.037-.327-.085-.38-.133-.433a1.08 1.08 0 01-.01-.01L3.311 2zm3.637 2C7 4.55 7 5.317 7 6.409v12.468l5.054-4.176 4.998 4.164V6.5c0-1.064-.43-1.638-.92-1.982-.542-.38-1.224-.518-1.666-.518H6.948z"/></symbol><symbol viewBox="0 0 24 24" id="box_icon_24" xmlns="http://www.w3.org/2000/svg"><path clip-rule="evenodd" d="M20 6V4H4v2h16zM2 8h1v12a2 2 0 002 2h14a2 2 0 002-2V8h1V4a2 2 0 00-2-2H4a2 2 0 00-2 2v4zm3 0h14v12H5V8zm10 3H9a1 1 0 001 1h4a1 1 0 001-1z"/></symbol><symbol viewBox="0 0 24 24" id="box_ok_icon_24" xmlns="http://www.w3.org/2000/svg"><path clip-rule="evenodd" d="M20 4v2H4V4h16zM3 8H2V4a2 2 0 012-2h16a2 2 0 012 2v4h-1v12a2 2 0 01-2 2H5a2 2 0 01-2-2V8zm2 0v12h14V8H5zm10.01 3.768a.5.5 0 00-.707 0l-3.182 3.182-1.06-1.06a.5.5 0 10-.707.706l1.414 1.414a.5.5 0 00.707 0l3.535-3.535a.5.5 0 000-.707z"/></symbol><symbol viewBox="0 0 24 24" id="cake_icon_24" xmlns="http://www.w3.org/2000/svg"><path clip-rule="evenodd" d="M12 5.5c-.622 0-1.5-.472-1.499-1.548v-.016l-.001-.041c0-.295.091-.584.198-.83.11-.25.251-.489.386-.69a6.909 6.909 0 01.53-.693l.01-.012.004-.003v-.002h.001L12 2l.37-.335h.001l.001.002.004.003.01.012a4.564 4.564 0 01.16.189c.1.124.234.3.37.503.135.202.277.441.386.692.107.245.198.534.198.829 0 .526-.196.94-.504 1.22A1.503 1.503 0 0112 5.5zM12 2l-.37-.335.37-.41.37.41L12 2zm.084.929A5.294 5.294 0 0012 2.807l-.084.122a3.59 3.59 0 00-.302.537 1.15 1.15 0 00-.114.429v.017l.001.041c0 .219.08.343.169.42A.536.536 0 0012 4.5c.101 0 .228-.04.325-.127.085-.077.175-.215.175-.478 0-.1-.034-.245-.114-.43a3.59 3.59 0 00-.302-.536zM20 13v7H4v-7a3 3 0 005.5 1.659A2.997 2.997 0 0012 16a2.997 2.997 0 002.5-1.341A3 3 0 0020 13zm-10 0a2 2 0 104 0h-4zm-1 0H5a2 2 0 104 0zm8 2a2 2 0 01-2-2h4a2 2 0 01-2 2zM4 11h1V7a1 1 0 011-1h12a1 1 0 011 1v4h1a2 2 0 012 2v9H2v-9a2 2 0 012-2zm13-3v3H7V8h10z"/></symbol><symbol viewBox="0 0 20 20" id="calendar" xmlns="http://www.w3.org/2000/svg"><path clip-rule="evenodd" d="M15 0h-2v1H7V0H5v1H2a2 2 0 00-2 2v15a2 2 0 002 2h16a2 2 0 002-2V3a2 2 0 00-2-2h-3V0zM5 5V3H2v15h16V3h-3v2h-1a1 1 0 01-1-1V3H7v1a1 1 0 01-1 1H5zm1.076 5.86H4.39v.666h.75V15h.936v-4.14zM3 6.5a.5.5 0 000 1h14a.5.5 0 000-1H3z"/></symbol><symbol viewBox="0 0 24 24" id="calendar_icon_24" xmlns="http://www.w3.org/2000/svg"><path clip-rule="evenodd" d="M17 2h-2v1H9V2H7v1H4a2 2 0 00-2 2v15a2 2 0 002 2h16a2 2 0 002-2V5a2 2 0 00-2-2h-3V2zM7 7V5H4v15h16V5h-3v2h-1a1 1 0 01-1-1V5H9v1a1 1 0 01-1 1H7zm1.076 5.86H6.39v.666h.75V17h.936v-4.14zM5 8.5a.5.5 0 000 1h14a.5.5 0 000-1H5z"/></symbol><symbol viewBox="0 0 24 24" id="camera_flash_icon_24" xmlns="http://www.w3.org/2000/svg"><path clip-rule="evenodd" d="M17.83 2l-2.742 7.51L20 10.756 6.5 22l2.942-8.182L4 12.437 17.83 2zm-9.512 9.584l3.689.937-1.225 3.407 5.119-4.264-3.388-.86 1.202-3.293-5.397 4.073z"/></symbol><symbol viewBox="0 0 24 24" id="camera_icon_24" xmlns="http://www.w3.org/2000/svg"><path clip-rule="evenodd" d="M19 12.5a4.5 4.5 0 11-9 0 4.5 4.5 0 019 0zM14.5 15a2.5 2.5 0 100-5 2.5 2.5 0 000 5z"/><path d="M8 8.5a.5.5 0 00-.5-.5h-2a.5.5 0 000 1h2a.5.5 0 00.5-.5z"/><path clip-rule="evenodd" d="M23 5a2 2 0 00-2-2H3a2 2 0 00-2 2v14a2 2 0 002 2h18a2 2 0 002-2V5zm-2 14V5H3v14h18z"/></symbol><symbol viewBox="0 0 24 24" id="card_icon_24" xmlns="http://www.w3.org/2000/svg"><path clip-rule="evenodd" d="M4 6h16v12H4V9h14.5a.5.5 0 000-1H4V6zM2 6a2 2 0 012-2h16a2 2 0 012 2v12a2 2 0 01-2 2H4a2 2 0 01-2-2V6z"/></symbol><symbol viewBox="0 0 24 24" id="card_reader_icon_24" xmlns="http://www.w3.org/2000/svg"><path clip-rule="evenodd" d="M7 3H2v2h3v15a2 2 0 002 2h10a2 2 0 002-2V5h3V3H7zm10 2h-2.5v14a.5.5 0 01-1 0V5H7v15h10V5z"/></symbol><symbol viewBox="0 0 24 24" id="cart_add_icon_24" xmlns="http://www.w3.org/2000/svg"><path clip-rule="evenodd" d="M19 5l2-3h2l-2 3v11c0 2-2 2-2 2H4c-2 0-2-2-2-2h17V5zM7.5 22a1.5 1.5 0 100-3 1.5 1.5 0 000 3zm8 0a1.5 1.5 0 100-3 1.5 1.5 0 000 3zm-5-15.5a.5.5 0 011 0v2h2a.5.5 0 010 1h-2v2a.5.5 0 01-1 0v-2h-2a.5.5 0 010-1h2v-2z"/></symbol><symbol viewBox="0 0 24 24" id="cart_icon_24" xmlns="http://www.w3.org/2000/svg"><path clip-rule="evenodd" d="M19 5l2-3h2l-2 3v11c0 2-2 2-2 2H4c-2 0-2-2-2-2h17V5zM7.5 22a1.5 1.5 0 100-3 1.5 1.5 0 000 3zm8 0a1.5 1.5 0 100-3 1.5 1.5 0 000 3z"/></symbol><symbol viewBox="0 0 24 24" id="cart_ok_icon_24" xmlns="http://www.w3.org/2000/svg"><path clip-rule="evenodd" d="M19 5l2-3h2l-2 3v11c0 2-2 2-2 2H4c-2 0-2-2-2-2h17V5zm-5.697 1.768a.5.5 0 11.707.707l-3.535 3.535a.5.5 0 01-.707 0L8.354 9.596a.5.5 0 11.707-.707l1.06 1.06 3.182-3.181zM17 20.5a1.5 1.5 0 11-3 0 1.5 1.5 0 013 0zM7.5 22a1.5 1.5 0 100-3 1.5 1.5 0 000 3z"/></symbol><symbol viewBox="0 0 24 24" id="cart_warning_icon_24" xmlns="http://www.w3.org/2000/svg"><path clip-rule="evenodd" d="M21 2l-2 3v11H2s0 2 2 2h15s2 0 2-2V5l2-3h-2zM9 20.5a1.5 1.5 0 11-3 0 1.5 1.5 0 013 0zm8 0a1.5 1.5 0 11-3 0 1.5 1.5 0 013 0zM10 5l.167 5h1.655L12 5h-2zm1 8a1 1 0 100-2 1 1 0 000 2z"/></symbol><symbol viewBox="0 0 24 24" id="cash_icon_24" xmlns="http://www.w3.org/2000/svg"><path clip-rule="evenodd" d="M14.034 11.326c0-.72-.378-1.251-1.134-1.593l-.54-.252.01-2.079c.45.054.8.279 1.061.693l.441-.513c-.324-.504-.81-.783-1.458-.837v-.621h-.504l-.009.612c-.477.054-.855.198-1.143.45-.36.315-.53.711-.53 1.179 0 .513.197.927.593 1.233.144.126.378.252.702.396l.333.153-.009 2.223c-.27 0-.54-.09-.792-.261a1.431 1.431 0 01-.567-.657l-.522.495c.18.342.441.612.765.81a2.03 2.03 0 001.071.306v.648h.504l.01-.657a1.982 1.982 0 001.08-.441 1.55 1.55 0 00.638-1.287zm-2.15-2.025l-.145-.072a2.873 2.873 0 01-.35-.198 1.031 1.031 0 01-.262-.288.778.778 0 01-.117-.432c0-.252.072-.468.234-.63.162-.162.378-.252.648-.288l-.009 1.908zm1.358 2.124a.892.892 0 01-.288.666c-.189.18-.396.279-.63.288l.01-2.052.224.108c.216.108.387.243.504.387.117.153.18.351.18.603z"/><path clip-rule="evenodd" d="M3 2a2 2 0 00-2 2v12a2 2 0 002 2h18a2 2 0 002-2V4a2 2 0 00-2-2H3zm18 2H3v12h18V4z"/><path d="M20.8 20v-1H23v1c0 1.105-.985 2-2.2 2H3.2C1.985 22 1 21.105 1 20h19.8z"/></symbol><symbol viewBox="0 0 24 24" id="chat_icon_24" xmlns="http://www.w3.org/2000/svg"><path d="M8.995 11a1 1 0 11-2 0 1 1 0 012 0zM16.995 11a1 1 0 11-2 0 1 1 0 012 0zM11.995 12a1 1 0 100-2 1 1 0 000 2z"/><path clip-rule="evenodd" d="M23 23l-4.902-4H3a2 2 0 01-2-2V3h20a2 2 0 012 2v18zM3 17V5h18v13.786L18.81 17H3z"/></symbol><symbol viewBox="0 0 24 24" id="checkmark_icon_24" xmlns="http://www.w3.org/2000/svg"><path clip-rule="evenodd" d="M19.707 5.293a1 1 0 010 1.414L8 18.414l-3.707-3.707a1 1 0 111.414-1.414L8 15.586 18.293 5.293a1 1 0 011.414 0z"/></symbol><symbol viewBox="0 0 24 24" id="close_icon_24" xmlns="http://www.w3.org/2000/svg"><path d="M18.721 6.623a.95.95 0 00-1.344-1.345L12 10.656 6.623 5.278a.95.95 0 10-1.344 1.345L10.656 12l-5.378 5.377a.95.95 0 101.345 1.345L12 13.343l5.377 5.378a.95.95 0 001.345-1.345L13.344 12l5.377-5.377z"/></symbol><symbol viewBox="0 0 24 24" id="color_fill_icon_24" xmlns="http://www.w3.org/2000/svg"><path clip-rule="evenodd" d="M21.92 13.02l-1.414-1.414-1.414-1.414-5.657-5.657-1.414-1.414-.293-.292a1 1 0 10-1.414 1.414l.293.293-7.072 7.07a2 2 0 000 2.829l5.657 5.657a2 2 0 002.829 0l7.07-7.071.01-.01c.573-.553 2.116-.225 2.82.01zm-9.9-7.07l5.658 5.657L16.284 13H4.971l7.05-7.05zm5.984 13.603c0-.8 1.498-2.553 1.498-2.553S21 18.754 21 19.553c0 .384-.158.752-.44 1.023A1.528 1.528 0 0119.5 21c-.398 0-.78-.153-1.06-.424a1.42 1.42 0 01-.44-1.023h.004z"/></symbol><symbol viewBox="0 0 24 24" id="comments_icon_24" xmlns="http://www.w3.org/2000/svg"><path d="M13.621 8.586a.5.5 0 11.707.707l-3.535 3.535a.5.5 0 01-.707 0L8.67 11.414a.5.5 0 11.708-.707l1.06 1.06 3.182-3.181z"/><path clip-rule="evenodd" d="M23 23l-4.902-4H3a2 2 0 01-2-2V3h20a2 2 0 012 2v18zM3 17V5h18v13.786L18.81 17H3z"/></symbol><symbol viewBox="0 0 24 24" id="compare_alt_icon_24" xmlns="http://www.w3.org/2000/svg"><path clip-rule="evenodd" d="M8.985 2a.5.5 0 00-1 0v1H5a2 2 0 00-2 2v14a2 2 0 002 2h2.985v.97a.5.5 0 001 0V2zm-1 17V5H5v14h2.985zM19 19V5h-8V3h8a2 2 0 012 2v14a2 2 0 01-2 2h-8v-2h8z"/></symbol><symbol viewBox="0 0 24 24" id="compare_icon_24" xmlns="http://www.w3.org/2000/svg"><path clip-rule="evenodd" d="M18.615 16.5a8 8 0 110-9H14a.5.5 0 000 1h5.196c.446.916.723 1.93.789 3H12a.5.5 0 000 1h7.985a7.954 7.954 0 01-.79 3H14a.5.5 0 000 1h4.615zM12 22c5.523 0 10-4.477 10-10S17.523 2 12 2 2 6.477 2 12s4.477 10 10 10z"/></symbol><symbol viewBox="0 0 24 24" id="consideration_icon_24" xmlns="http://www.w3.org/2000/svg"><path clip-rule="evenodd" d="M20 13v7H4v-7h16zm-2 2H6v3h12v-3zm2-11v7H4V4h16zm-2 2H6v3h12V6z"/></symbol><symbol viewBox="0 0 24 24" id="controls_icon_24" xmlns="http://www.w3.org/2000/svg"><path clip-rule="evenodd" d="M9 8a1 1 0 11-2 0 1 1 0 012 0zm2 0a3 3 0 11-6 0 3 3 0 016 0zM3 7h1v2H3a1 1 0 010-2zm18 2h-9V7h9a1 1 0 110 2zm-5 6a1 1 0 100 2 1 1 0 000-2zm0-2a3 3 0 100 6 3 3 0 000-6zm5 4h-1v-2h1a1 1 0 110 2zM3 15h9v2H3a1 1 0 110-2z"/></symbol><symbol viewBox="0 0 24 24" id="copy_icon_24" xmlns="http://www.w3.org/2000/svg"><path d="M5 3v16a2 2 0 01-2-2V3a2 2 0 012-2h8a2 2 0 012 2H5z"/><path clip-rule="evenodd" d="M19 5a2 2 0 012 2v14a2 2 0 01-2 2H9a2 2 0 01-2-2V7a2 2 0 012-2h10zm0 2v14H9V7h10z"/></symbol><symbol viewBox="0 0 24 24" id="direction_icon_24" xmlns="http://www.w3.org/2000/svg"><path clip-rule="evenodd" d="M12 2.97L21.03 12 12 21.03 2.97 12 12 2.97zm-1.393-1.393a1.97 1.97 0 012.786 0l9.03 9.03c.77.77.77 2.016 0 2.786l-9.03 9.03a1.97 1.97 0 01-2.786 0l-9.03-9.03a1.97 1.97 0 010-2.786l9.03-9.03zm2.95 6.375a.492.492 0 10-.696.697l1.86 1.86H9.046a.492.492 0 00-.492.492v3.953a.492.492 0 10.984 0v-3.46h5.183l-1.86 1.86a.492.492 0 10.696.696l2.7-2.7a.492.492 0 000-.697l-2.7-2.7z"/></symbol><symbol viewBox="0 0 24 24" id="doc_add_icon_24" xmlns="http://www.w3.org/2000/svg"><path clip-rule="evenodd" d="M17 2.414V5h2.586l-1.293-1.293L17 2.414zM19 3l2 2v18H5a2 2 0 01-2-2V1h14l2 2zm-4 2v2h4v14H5V3h10v2zm-3.5 5.5a.5.5 0 011 0v2h2a.5.5 0 010 1h-2v2a.5.5 0 01-1 0v-2h-2a.5.5 0 010-1h2v-2z"/></symbol><symbol viewBox="0 0 24 24" id="document_icon_24" xmlns="http://www.w3.org/2000/svg"><path clip-rule="evenodd" d="M19.586 5l-1.293-1.293L17 2.414V5h2.586zM21 5v18H5a2 2 0 01-2-2V1h14l2 2 2 2zM7.5 10a.5.5 0 01.5-.5h8a.5.5 0 010 1H8a.5.5 0 01-.5-.5zm0 3a.5.5 0 01.5-.5h8a.5.5 0 010 1H8a.5.5 0 01-.5-.5zm.5 2.5a.5.5 0 000 1h4a.5.5 0 000-1H8zM15 5v2h4v14H5V3h10v2z"/></symbol><symbol viewBox="0 0 7 4" id="down-arrow-filled_icon_24" xmlns="http://www.w3.org/2000/svg"><path d="M0 0l3.5 4L7 0H0z"/></symbol><symbol viewBox="0 0 24 24" id="down_icon_24" xmlns="http://www.w3.org/2000/svg"><path clip-rule="evenodd" d="M6.343 11.515a1 1 0 00-1.414 1.414l6.364 6.364L12 20l.707-.707 6.364-6.364a1 1 0 10-1.414-1.414L13 16.172V4h-2v12.172l-4.657-4.657z"/></symbol><symbol viewBox="0 0 24 24" id="download_icon_24" xmlns="http://www.w3.org/2000/svg"><path clip-rule="evenodd" d="M17.266 12.397a.5.5 0 00-.707-.707l-3.574 3.574V2.5a.5.5 0 10-1 0v12.764l-3.389-3.39a.5.5 0 10-.707.707l4.243 4.243a.5.5 0 00.707 0l4.427-4.427zM3 17.501h2v2h15v-2h2v2a2 2 0 01-2 2H5a2 2 0 01-2-2v-2z"/></symbol><symbol viewBox="0 0 24 24" id="edit_icon_24" xmlns="http://www.w3.org/2000/svg"><path clip-rule="evenodd" d="M18.243 2.136l-.354-.354-.353.354L9.51 10.16l-.107.107-.03.149-.53 2.652-.147.735.735-.147 2.652-.53.148-.03.107-.107 8.025-8.025.354-.353-.354-.354-2.121-2.121zm-7.918 8.624l7.564-7.564 1.414 1.415-7.564 7.564-1.767.353.353-1.768zM13 2v2H5v16h14V10h2v10a2 2 0 01-2 2H5a2 2 0 01-2-2V4a2 2 0 012-2h8zM6.5 16a.5.5 0 01.5-.5h6a.5.5 0 010 1H7a.5.5 0 01-.5-.5z"/></symbol><symbol viewBox="0 0 24 24" id="email_icon_24" xmlns="http://www.w3.org/2000/svg"><path d="M5.248 8.566a.5.5 0 00-.496.868L12 13.576l7.248-4.142a.5.5 0 00-.496-.868L12 12.424 5.248 8.566zM9.416 12.723a.5.5 0 01-.139.693l-3 2a.5.5 0 11-.554-.832l3-2a.5.5 0 01.693.139zM15.277 12.584a.5.5 0 10-.554.832l3 2a.5.5 0 10.554-.832l-3-2z"/><path clip-rule="evenodd" d="M21 3a2 2 0 012 2v14a2 2 0 01-2 2H3a2 2 0 01-2-2V5a2 2 0 012-2h18zm0 2v14H3V5h18z"/></symbol><symbol viewBox="0 0 24 24" id="event_icon_24" xmlns="http://www.w3.org/2000/svg"><path d="M4.5 9a.5.5 0 01.5-.5h14a.5.5 0 010 1H5a.5.5 0 01-.5-.5zM14.303 11.768a.5.5 0 11.707.707l-3.535 3.535a.5.5 0 01-.707 0l-1.415-1.414a.5.5 0 11.708-.707l1.06 1.06 3.182-3.181z"/><path clip-rule="evenodd" d="M15 2h2v1h3a2 2 0 012 2v15a2 2 0 01-2 2H4a2 2 0 01-2-2V5a2 2 0 012-2h3V2h2v1h6V2zM7 5v2h1a1 1 0 001-1V5h6v1a1 1 0 001 1h1V5h3v15H4V5h3z"/></symbol><symbol viewBox="0 0 24 24" id="expenses_icon_24" xmlns="http://www.w3.org/2000/svg"><path clip-rule="evenodd" d="M12.9 11.733c.756.342 1.134.873 1.134 1.593 0 .531-.216.963-.639 1.287a1.982 1.982 0 01-1.08.441l-.009.657h-.504v-.648a2.03 2.03 0 01-1.07-.306 2.07 2.07 0 01-.766-.81l.522-.495c.117.27.306.495.567.657.252.171.522.261.792.261l.01-2.223-.334-.153c-.324-.144-.558-.27-.702-.396-.396-.306-.594-.72-.594-1.233 0-.468.171-.864.531-1.179.288-.252.666-.396 1.143-.45l.01-.612h.503v.621c.648.054 1.134.333 1.458.837l-.44.513c-.262-.414-.613-.639-1.063-.693l-.009 2.079.54.252zm-1.16-.504l.143.072.01-1.908c-.27.036-.487.126-.649.288-.162.162-.234.378-.234.63 0 .162.036.306.117.432.081.126.171.225.261.288.09.063.207.126.351.198zm1.214 2.862a.892.892 0 00.288-.666c0-.252-.063-.45-.18-.603a1.525 1.525 0 00-.504-.387l-.225-.108-.009 2.052c.234-.009.441-.108.63-.288z"/><path clip-rule="evenodd" d="M12 22c5.523 0 10-4.477 10-10S17.523 2 12 2 2 6.477 2 12s4.477 10 10 10zm8-10a8 8 0 11-16 0 8 8 0 0116 0z"/></symbol><symbol viewBox="0 0 24 24" id="file_pdf_icon_24" xmlns="http://www.w3.org/2000/svg"><path clip-rule="evenodd" d="M17 3v-.586l1.293 1.293L19.586 5H17V3zm4 2l-2-2-2-2H3v20a2 2 0 002 2h16V5zm-6 2V3H5v18h14V7h-4zm-5.04 5.162c0-.42-.143-.75-.431-.99-.252-.204-.612-.312-1.08-.312H6.967V15h.972v-1.53h.51c.468 0 .828-.102 1.08-.312.288-.24.432-.576.432-.996zm-.983 0c0 .204-.066.348-.198.444-.108.078-.264.114-.468.114h-.378v-1.11h.378c.204 0 .36.042.468.114.132.096.198.246.198.438zm5.13.768c0-.672-.227-1.2-.671-1.572-.39-.33-.925-.498-1.597-.498h-1.404V15h1.404c.672 0 1.207-.162 1.596-.492.444-.378.672-.906.672-1.578zm-.983 0c0 .408-.127.72-.367.948-.21.204-.498.3-.864.3h-.492v-2.514h.492c.36 0 .648.102.864.294.24.24.367.564.367.972zm1.53-2.07h2.586v.774h-1.62v1.014h1.524v.774H15.62V15h-.966v-4.14z"/></symbol><symbol viewBox="0 0 24 24" id="file_txt_icon_24" xmlns="http://www.w3.org/2000/svg"><path clip-rule="evenodd" d="M17 3v-.586l1.293 1.293L19.586 5H17V3zm4 2l-2-2-2-2H3v20a2 2 0 002 2h16V5zm-6 2V3H5v18h14V7h-4zm-4.977 3.86H6.915v.768h1.068V15h.972v-3.372h1.068v-.768zm2.612 1.992l1.29-1.992h-1.152l-.774 1.362-.774-1.362h-1.152l1.284 1.992L9.983 15h1.158l.858-1.542L12.85 15h1.158l-1.374-2.148zm1.34-1.992h3.108v.768h-1.068V15h-.972v-3.372h-1.068v-.768z"/></symbol><symbol viewBox="0 0 24 24" id="filter_ascending_icon_24" xmlns="http://www.w3.org/2000/svg"><path clip-rule="evenodd" d="M17.121 8.422a.5.5 0 00.707.707l1.422-1.422V14a.5.5 0 001 0V7.707l1.422 1.422a.5.5 0 00.707-.707l-2.275-2.276a.5.5 0 00-.708 0l-2.275 2.276zM3 8h11a1 1 0 100-2H3a1 1 0 000 2zm5 3a1 1 0 100 2h6a1 1 0 100-2H8zm3 6a1 1 0 011-1h2a1 1 0 110 2h-2a1 1 0 01-1-1z"/></symbol><symbol viewBox="0 0 24 24" id="filter_descending_icon_24" xmlns="http://www.w3.org/2000/svg"><path clip-rule="evenodd" d="M13 7a1 1 0 01-1 1h-2a1 1 0 010-2h2a1 1 0 011 1zm3 6a1 1 0 100-2h-6a1 1 0 100 2h6zm5 3H10a1 1 0 100 2h11a1 1 0 100-2zM6.88 15.578a.5.5 0 10-.707-.707L4.75 16.293V10a.5.5 0 00-1 0v6.293L2.33 14.87a.5.5 0 00-.707.707l2.275 2.276a.5.5 0 00.707 0l2.275-2.276z"/></symbol><symbol viewBox="0 0 24 24" id="filter_icon_24" xmlns="http://www.w3.org/2000/svg"><path clip-rule="evenodd" d="M21 7a1 1 0 01-1 1H4a1 1 0 110-2h16a1 1 0 011 1zm-3 5a1 1 0 01-1 1H7a1 1 0 110-2h10a1 1 0 011 1zm-4 6a1 1 0 100-2h-4a1 1 0 100 2h4z"/></symbol><symbol viewBox="0 0 24 24" id="flu_icon_24" xmlns="http://www.w3.org/2000/svg"><path clip-rule="evenodd" d="M11.32 18.806l7.486-7.487a4.332 4.332 0 00-6.125-6.125L5.194 12.68a4.331 4.331 0 106.125 6.125zm8.848-14.974a6.257 6.257 0 00-8.849 0L3.832 11.32a6.257 6.257 0 008.849 8.848l7.487-7.486a6.257 6.257 0 000-8.849zm-7.284 6.164a.962.962 0 11-1.925 0 .962.962 0 011.925 0zm.963 2.888a.962.962 0 100-1.925.962.962 0 000 1.925zm-2.888-.962a.962.962 0 11-1.925 0 .962.962 0 011.925 0zm.963 2.887a.962.962 0 100-1.925.962.962 0 000 1.925z"/></symbol><symbol viewBox="0 0 24 24" id="folder_icon_24" xmlns="http://www.w3.org/2000/svg"><path clip-rule="evenodd" d="M1 2v16a3 3 0 003 3h16a3 3 0 003-3V7a3 3 0 00-3-3H10c-.3 0-.476-.07-.584-.139a6.017 6.017 0 01-.587-.442l-.15-.124c-.175-.146-.374-.311-.57-.46C7.605 2.453 6.894 2 6 2H1zm2 3V4h3c.21 0 .474.105.901.429.157.118.306.242.473.382l.183.151.046.038H3zm0 1v12a1 1 0 001 1h16a1 1 0 001-1V7a1 1 0 00-1-1H3z"/></symbol><symbol viewBox="0 0 24 24" id="folder_move_icon_24" xmlns="http://www.w3.org/2000/svg"><path clip-rule="evenodd" d="M1 2v8h2V6h17a1 1 0 011 1v11a1 1 0 01-1 1H4a1 1 0 01-1-1v-1H1v1a3 3 0 003 3h16a3 3 0 003-3V7a3 3 0 00-3-3H10c-.3 0-.476-.07-.584-.139a6.017 6.017 0 01-.587-.442l-.15-.124c-.175-.146-.374-.311-.57-.46C7.605 2.453 6.894 2 6 2H1zm6.603 3H3V4h3c.21 0 .474.105.901.429.157.118.306.242.473.382l.183.151.046.038z"/><path d="M10.146 8.353a.5.5 0 000 .708l3.39 3.389H1v1h12.536l-3.39 3.389a.5.5 0 00.708.707l4.096-4.096H15v-.05l.096-.097a.5.5 0 000-.707L15 12.5v-.05h-.05l-4.096-4.097a.5.5 0 00-.708 0z"/></symbol><symbol viewBox="0 0 24 24" id="forward_icon_24" xmlns="http://www.w3.org/2000/svg"><path clip-rule="evenodd" d="M12.515 17.657a1 1 0 001.414 1.414l6.364-6.364L21 12l-.707-.707-6.364-6.364a1 1 0 10-1.414 1.414L17.172 11H5v2h12.172l-4.657 4.657z"/></symbol><symbol viewBox="0 0 24 24" id="gift_icon_24" xmlns="http://www.w3.org/2000/svg"><path clip-rule="evenodd" d="M4 5.84h3.044a2.8 2.8 0 113.895-4.02c.752.751.938 2.807.981 4.02h.07c.042-1.213.229-3.269.98-4.02a2.8 2.8 0 113.895 4.02H22v7h-1v7a2 2 0 01-2 2H5a2 2 0 01-2-2v-7H2v-7h2zm6.593-2.516c-.131-.468-.273-.71-.36-.797a1.8 1.8 0 10-2.546 2.546c.087.087.329.229.797.36.438.122.96.205 1.481.257.338.034.665.054.951.066a16.518 16.518 0 00-.066-.95 9.067 9.067 0 00-.257-1.482zM12.5 7.84H20v3h-7.5v-3zm-1 0H4v3h7.5v-3zm7.5 5h-6.5v7H19v-7zm-7.5 0H5v7h6.5v-7zm2.177-10.313c-.087.088-.23.329-.36.797-.123.439-.205.96-.257 1.481-.034.339-.055.665-.067.951.287-.012.613-.032.952-.066a9.058 9.058 0 001.48-.257c.469-.131.71-.273.798-.36a1.8 1.8 0 00-2.546-2.546z"/></symbol><symbol viewBox="0 0 24 24" id="graph_alt_icon_24" xmlns="http://www.w3.org/2000/svg"><path clip-rule="evenodd" d="M20 12a8 8 0 11-8.5-7.985v9.122l.838-.768 5.886-5.396A7.966 7.966 0 0120 12zm-7.5-7.985v6.848l5.048-4.627a7.972 7.972 0 00-5.048-2.22zM12 22c5.523 0 10-4.477 10-10S17.523 2 12 2 2 6.477 2 12s4.477 10 10 10z"/></symbol><symbol viewBox="0 0 24 24" id="graph_icon_24" xmlns="http://www.w3.org/2000/svg"><path clip-rule="evenodd" d="M3 4v14a2 2 0 002 2h16v-2H5V4H3zm16.354 3.354a.5.5 0 00-.708-.708L12 13.293l-1.646-1.647-.354-.353-.354.353-3 3a.5.5 0 00.708.708L10 12.707l1.646 1.647.354.353.354-.353 7-7z"/></symbol><symbol viewBox="0 0 24 24" id="help_alt_icon_24" xmlns="http://www.w3.org/2000/svg"><path clip-rule="evenodd" d="M13 4h-2a8 8 0 100 16h2a8 8 0 100-16zm-2-2C5.477 2 1 6.477 1 12a9.983 9.983 0 003.83 7.87C4.693 20.98 4.346 22.306 4 23c.837-.51 2.708-1.27 3.561-1.607A9.981 9.981 0 0011 22h2c5.523 0 10-4.477 10-10S18.523 2 13 2h-2zm.205 11.701c0-.476.06-.856.177-1.139.119-.282.351-.592.699-.929.35-.34.572-.582.666-.725.143-.218.214-.454.214-.709 0-.336-.084-.592-.252-.768-.165-.179-.408-.268-.73-.268-.308 0-.557.087-.747.263-.186.172-.28.406-.28.703H9.648c.008-.633.222-1.135.645-1.504.426-.368.988-.553 1.687-.553.72 0 1.28.183 1.68.548.405.365.608.876.608 1.53 0 .585-.272 1.16-.817 1.725l-.66.65c-.237.268-.358.66-.366 1.176h-1.219zm-.091 1.67a.68.68 0 01.198-.51c.133-.132.312-.198.538-.198.229 0 .41.068.542.204.133.132.199.3.199.505a.68.68 0 01-.193.494c-.13.132-.312.198-.548.198-.237 0-.42-.066-.548-.198a.69.69 0 01-.188-.494z"/></symbol><symbol viewBox="0 0 24 24" id="help_icon_24" xmlns="http://www.w3.org/2000/svg"><path clip-rule="evenodd" d="M20 12a8 8 0 11-16 0 8 8 0 0116 0zm-8 10c5.523 0 10-4.477 10-10S17.523 2 12 2 2 6.477 2 12s4.477 10 10 10zm-.97-8.635c-.031.122-.03.252-.03.635h1.663c.008-.581.065-.641.267-.852.042-.044.09-.094.147-.158l.9-.886c.743-.771 1.114-1.555 1.114-2.351 0-.894-.276-1.59-.828-2.087-.547-.499-1.31-.748-2.292-.748-.952 0-1.719.252-2.3.755-.576.503-.87 1.186-.879 2.05h1.78c0-.405.127-.724.38-.959.26-.24.599-.359 1.019-.359.44 0 .771.122.996.366.23.24.344.589.344 1.048 0 .346-.098.669-.293.967-.127.195-.43.524-.908.988-.474.46-.791.882-.952 1.268-.066.158-.105.238-.127.323zm.033 1.811c-.181.176-.272.408-.272.696 0 .269.086.493.257.674.176.18.425.27.747.27s.571-.09.747-.27a.928.928 0 00.264-.674.933.933 0 00-.271-.688c-.181-.186-.428-.279-.74-.279-.308 0-.552.09-.732.271z"/></symbol><symbol viewBox="0 0 24 24" id="hide_icon_24" xmlns="http://www.w3.org/2000/svg"><path clip-rule="evenodd" d="M4.302 19.595a.5.5 0 01-.343-.864L19.467 4.136a.5.5 0 01.685.728l-5.747 5.409a2.86 2.86 0 01-4.092 3.852l-5.668 5.334a.5.5 0 01-.343.136zm6.758-6.174l2.597-2.445a1.859 1.859 0 01-2.598 2.445zm-1.42 4.39c.795.207 1.59.312 2.361.312 4.167 0 7.655-2.966 9.363-4.734a2.251 2.251 0 000-3.14 19.842 19.842 0 00-2.31-2.047 1 1 0 10-1.202 1.6 17.948 17.948 0 012.074 1.836.257.257 0 010 .361c-1.198 1.24-4.369 4.124-7.925 4.124a7.359 7.359 0 01-1.857-.248 1 1 0 00-.504 1.936zM5.142 15.58a1 1 0 101.18-1.616A17.768 17.768 0 014.077 12a.255.255 0 010-.361c1.197-1.24 4.367-4.124 7.925-4.124.568 0 1.156.073 1.747.219a1 1 0 00.48-1.941 9.284 9.284 0 00-2.227-.278c-4.168 0-7.656 2.966-9.365 4.734-.85.88-.85 2.26 0 3.14a19.797 19.797 0 002.506 2.19z"/></symbol><symbol viewBox="0 0 24 24" id="history_icon_24" xmlns="http://www.w3.org/2000/svg"><path clip-rule="evenodd" d="M13 20a8 8 0 10-8-8H3C3 6.477 7.477 2 13 2s10 4.477 10 10-4.477 10-10 10v-2zm-.5-8.338V8h-1v4.338l.314.126 5 2 .372-.928-4.686-1.874zM1 12l3 3.6L7 12H1z"/></symbol><symbol viewBox="0 0 24 24" id="home_icon_24" xmlns="http://www.w3.org/2000/svg"><path clip-rule="evenodd" d="M12 4.595L5 10.72v8.342h14V10.72l-7-6.125zm9 5.218l-9-7.876-9 7.875v11.25h18V9.813z"/></symbol><symbol viewBox="0 0 24 24" id="inbox_icon_24" xmlns="http://www.w3.org/2000/svg"><path clip-rule="evenodd" d="M21 8.288V20H3V8.288l9-4.091 9 4.09zM2.172 6.468L12 2l9.828 4.467A2 2 0 0123 8.287V20a2 2 0 01-2 2H3a2 2 0 01-2-2V8.288a2 2 0 011.172-1.82zm3.076 5.098a.5.5 0 00-.496.868l7 4 .248.142.248-.142 7-4a.5.5 0 00-.496-.868L12 15.424l-6.752-3.858z"/></symbol><symbol viewBox="0 0 24 24" id="information_icon_24" xmlns="http://www.w3.org/2000/svg"><path clip-rule="evenodd" d="M20 12a8 8 0 11-16 0 8 8 0 0116 0zm-8 10c5.523 0 10-4.477 10-10S17.523 2 12 2 2 6.477 2 12s4.477 10 10 10zm1.708-14.705A.969.969 0 0012.992 7a.945.945 0 00-.704.295.98.98 0 00-.288.71c0 .275.098.51.292.704a.956.956 0 00.7.291.98.98 0 00.712-.291.952.952 0 00.296-.705.972.972 0 00-.292-.709zM13.316 10h-.405l-2.303.418-.085.304a3.6 3.6 0 01.245-.01.47.47 0 01.35.133.409.409 0 01.13.304c0 .177-.044.44-.134.788l-.996 3.177a2.87 2.87 0 00-.118.722c0 .284.087.52.261.707.175.187.408.28.701.28.77 0 1.5-.67 2.186-2.013l-.237-.152c-.28.494-.526.836-.734 1.026-.073.076-.149.114-.228.114-.045 0-.087-.025-.126-.076a.246.246 0 01-.06-.152c0-.101.037-.307.11-.617L13.317 10z"/></symbol><symbol viewBox="0 0 4 18" id="kebab_icon_24" xmlns="http://www.w3.org/2000/svg"><path clip-rule="evenodd" d="M2 4c1.1 0 2-.9 2-2s-.9-2-2-2-2 .9-2 2 .9 2 2 2zm0 3C.9 7 0 7.9 0 9s.9 2 2 2 2-.9 2-2-.9-2-2-2zm0 7c-1.1 0-2 .9-2 2s.9 2 2 2 2-.9 2-2-.9-2-2-2z"/></symbol><symbol viewBox="0 0 24 24" id="keyboard_icon_24" xmlns="http://www.w3.org/2000/svg"><path clip-rule="evenodd" d="M3 3a2 2 0 00-2 2v16h22V5a2 2 0 00-2-2H3zm0 2h18v14H3V5zm2 2h2v2H5V7zm4 0h2v2H9V7zm6 0h-2v2h2V7zm2 0h2v2h-2V7zm-8 4H7v2h2v-2zm2 0h2v2h-2v-2zm6 0h-2v2h2v-2zM6 16a1 1 0 011-1h10a1 1 0 110 2H7a1 1 0 01-1-1z"/></symbol><symbol viewBox="0 0 24 24" id="language_icon_24" xmlns="http://www.w3.org/2000/svg"><path clip-rule="evenodd" d="M11.5 16.907v2.889a9.045 9.045 0 01-3.132-3.024c1.022.078 2.067.124 3.132.135zm1 0v2.89a9.046 9.046 0 003.132-3.025 47.225 47.225 0 01-3.132.135zm3.697-1.186c-1.197.11-2.432.173-3.697.186V12.5h4.486a8.95 8.95 0 01-.789 3.22zm.652.941a10.042 10.042 0 01-2.352 2.94 8.02 8.02 0 004.162-3.166c-.593.087-1.196.162-1.81.226zm2.429-1.335c-.635.105-1.284.197-1.946.275.374-.97.602-2.013.656-3.102h1.997a7.954 7.954 0 01-.707 2.826zm-7.778.58a45.97 45.97 0 01-3.697-.186 8.95 8.95 0 01-.79-3.221H11.5v3.407zm-4.831-.305a9.956 9.956 0 01-.657-3.102H4.015a7.954 7.954 0 00.707 2.826c.635.106 1.284.198 1.947.276zm-1.328.834a8.02 8.02 0 004.163 3.167 10.042 10.042 0 01-2.353-2.941 43.3 43.3 0 01-1.81-.226zM11.5 11.5H7.014a8.95 8.95 0 01.832-3.315 46.01 46.01 0 013.654-.182V11.5zM9.504 4.397c-.931.796-1.714 1.76-2.302 2.846a43.47 43.47 0 00-1.793.222 8.02 8.02 0 014.095-3.068zm1.996-.193a9.046 9.046 0 00-3.072 2.93 47.313 47.313 0 013.072-.131V4.204zm1 7.296V8.003c1.25.013 2.47.075 3.654.182a8.95 8.95 0 01.832 3.315H12.5zm0-4.497c1.044.01 2.07.055 3.072.13A9.046 9.046 0 0012.5 4.204v2.799zm5.488 4.497a9.952 9.952 0 00-.694-3.197c.66.077 1.306.168 1.938.273.425.896.688 1.883.753 2.924h-1.997zm-1.19-4.257a43.47 43.47 0 011.793.222 8.02 8.02 0 00-4.095-3.068c.93.796 1.714 1.76 2.302 2.846zM6.706 8.303a41.46 41.46 0 00-1.938.273 7.955 7.955 0 00-.753 2.924h1.997c.056-1.124.297-2.2.694-3.197zM22 12c0 5.523-4.477 10-10 10S2 17.523 2 12 6.477 2 12 2s10 4.477 10 10zM8 22h-.07.14H8z"/></symbol><symbol viewBox="0 0 24 24" id="laptop_icon_24" xmlns="http://www.w3.org/2000/svg"><path clip-rule="evenodd" d="M5 3a2 2 0 00-2 2v12h18V5a2 2 0 00-2-2H5zm0 2h14v10H5V5zm17 14H2a2 2 0 002 2h16a2 2 0 002-2z"/></symbol><symbol viewBox="0 0 24 24" id="lauch_icon_24" xmlns="http://www.w3.org/2000/svg"><path clip-rule="evenodd" d="M15.24 2a.5.5 0 00.5.5h5.053L9.646 13.646a.5.5 0 00.708.708L21.5 3.207V8a.5.5 0 001 0V2a.5.5 0 00-.5-.5h-6.26a.5.5 0 00-.5.5zM5 3a2 2 0 00-2 2v15a2 2 0 002 2h14a2 2 0 002-2v-8.444h-2V20H5V5h8.333V3H5z"/></symbol><symbol viewBox="0 0 24 24" id="link_broken_icon_24" xmlns="http://www.w3.org/2000/svg"><path clip-rule="evenodd" d="M10.7 3.707a.5.5 0 00-1 0V7.95a.5.5 0 001 0V3.707zM8.788 9.864a.5.5 0 100-1H4.544a.5.5 0 100 1h4.243zm-1.7 1.34L5.76 12.532a4.125 4.125 0 105.833 5.833l1.326-1.326-1.414-1.414-1.326 1.326a2.125 2.125 0 11-3.005-3.005L8.5 12.619l-1.414-1.414zm10.783.884l.619-.619a4.125 4.125 0 00-5.834-5.833l-.618.619 1.414 1.414.618-.619a2.125 2.125 0 013.005 3.005l-.618.619 1.414 1.414zm-3.205 7.897a.5.5 0 01-.5-.5v-4.242a.5.5 0 111 0v4.242a.5.5 0 01-.5.5zm.915-6.157a.5.5 0 01.5-.5h4.242a.5.5 0 110 1H16.08a.5.5 0 01-.5-.5z"/></symbol><symbol viewBox="0 0 24 24" id="link_icon_24" xmlns="http://www.w3.org/2000/svg"><path clip-rule="evenodd" d="M17.295 12.85l1.326-1.326a4.125 4.125 0 00-5.833-5.833L9.87 8.607a4.125 4.125 0 00-.087 5.744l.021-.02a1 1 0 00.154.198l.354.353a1 1 0 001.414-1.414l-.353-.354a1.005 1.005 0 00-.199-.154l.025-.025a2.125 2.125 0 01.086-2.914l2.916-2.916a2.125 2.125 0 013.005 3.005l-1.326 1.326 1.414 1.414zM6.954 11.524L5.628 12.85a4.125 4.125 0 005.833 5.833l2.917-2.916a4.125 4.125 0 00.087-5.744l-.021.02a1.001 1.001 0 00-.154-.198l-.354-.353a1 1 0 10-1.414 1.414l.354.353a1 1 0 00.198.155l-.025.024a2.125 2.125 0 01-.085 2.914l-2.917 2.917a2.125 2.125 0 11-3.005-3.005l1.326-1.326-1.414-1.414z"/></symbol><symbol viewBox="0 0 24 24" id="linkage_multiple_icon_24" xmlns="http://www.w3.org/2000/svg"><path clip-rule="evenodd" d="M11 17a4 4 0 10-8 0 4 4 0 008 0zm-6 0a2 2 0 114 0 2 2 0 01-4 0zM21 7a4 4 0 10-8 0 4 4 0 008 0zm-6 0a2 2 0 114 0 2 2 0 01-4 0zm-3.9 0c0 .95-.33 1.823-.884 2.51l4.376 4.375a4 4 0 11-.694.72l-4.402-4.401A4 4 0 1111.1 7zm-2 0a2 2 0 10-4 0 2 2 0 004 0zm10 10a2 2 0 10-4 0 2 2 0 004 0z"/></symbol><symbol viewBox="0 0 24 24" id="linkage_off_icon_24" xmlns="http://www.w3.org/2000/svg"><path clip-rule="evenodd" d="M11 17a4 4 0 10-8 0 4 4 0 008 0zm-6 0a2 2 0 114 0 2 2 0 01-4 0zM21 7a4 4 0 10-8 0 4 4 0 008 0zm-6 0a2 2 0 114 0 2 2 0 01-4 0zM6.354 5.747a.5.5 0 10-.708.707l12 12a.5.5 0 00.708-.707l-12-12z"/></symbol><symbol viewBox="0 0 24 24" id="linkage_on_icon_24" xmlns="http://www.w3.org/2000/svg"><path clip-rule="evenodd" d="M9.61 13.784a4 4 0 10.695.72l4.4-4.401a4 4 0 10-.72-.694L9.61 13.784zM5.1 16.899a2 2 0 114 0 2 2 0 01-4 0zm10-10a2 2 0 114 0 2 2 0 01-4 0z"/></symbol><symbol viewBox="0 0 24 24" id="list_alt_icon_24" xmlns="http://www.w3.org/2000/svg"><path d="M4 6a1 1 0 100-2 1 1 0 000 2zM20 6a1 1 0 100-2H8a1 1 0 100 2h12zM20 13a1 1 0 100-2H8a1 1 0 100 2h12zM21 19a1 1 0 01-1 1H8a1 1 0 110-2h12a1 1 0 011 1zM5 12a1 1 0 11-2 0 1 1 0 012 0zM4 20a1 1 0 100-2 1 1 0 000 2z"/></symbol><symbol viewBox="0 0 24 24" id="list_icon_24" xmlns="http://www.w3.org/2000/svg"><path clip-rule="evenodd" d="M19 3v18H5V3h14zm2-2v22H5a2 2 0 01-2-2V1h18zM10.5 8a.5.5 0 01.5-.5h5a.5.5 0 010 1h-5a.5.5 0 01-.5-.5zm0 4a.5.5 0 01.5-.5h5a.5.5 0 010 1h-5a.5.5 0 01-.5-.5zm.5 3.5a.5.5 0 000 1h5a.5.5 0 000-1h-5zm-3.5.5a.5.5 0 01.5-.5h1a.5.5 0 010 1H8a.5.5 0 01-.5-.5zm.5-4.5a.5.5 0 000 1h1a.5.5 0 000-1H8zM7.5 8a.5.5 0 01.5-.5h1a.5.5 0 010 1H8a.5.5 0 01-.5-.5z"/></symbol><symbol viewBox="0 0 24 24" id="location_icon_24" xmlns="http://www.w3.org/2000/svg"><path clip-rule="evenodd" d="M12 1c-1.665 0-3.637.562-5.212 1.791-1.606 1.254-2.785 3.195-2.78 5.846 0 .042-.002.086-.004.15v.005A6.823 6.823 0 004 9c0 1.465.507 2.998 1.193 4.42.693 1.433 1.606 2.832 2.502 4.048a42.098 42.098 0 003.556 4.197l.018.018.017.017.005.005.001.001L12 21l-.707.707.707.707.707-.707L12 21l.707.707.002-.002.005-.005.017-.017a20.607 20.607 0 00.294-.304 42.13 42.13 0 003.28-3.91c.896-1.217 1.81-2.616 2.502-4.05C19.493 11.998 20 10.465 20 9c0-2.8-1.134-4.834-2.742-6.149C15.682 1.561 13.7 1 12 1zm-.348 18.162c.125.14.241.268.348.384.107-.116.223-.245.348-.384a40.094 40.094 0 002.347-2.88c.854-1.159 1.69-2.448 2.31-3.732.627-1.298.995-2.515.995-3.55 0-2.2-.866-3.666-2.008-4.601C14.818 3.439 13.3 3 12 3c-1.261 0-2.79.438-3.981 1.368-1.16.905-2.015 2.282-2.012 4.266 0 .076-.002.15-.004.208v.005A5.19 5.19 0 006 9c0 1.035.368 2.252.994 3.55.62 1.284 1.457 2.573 2.311 3.732a40.104 40.104 0 002.347 2.88zM13 9a1 1 0 11-2 0 1 1 0 012 0zm-1 2a2 2 0 100-4 2 2 0 000 4z"/></symbol><symbol viewBox="0 0 24 24" id="lock_closed_icon_24" xmlns="http://www.w3.org/2000/svg"><path clip-rule="evenodd" d="M7 6v1a4 4 0 00-4 4v7a4 4 0 004 4h10a4 4 0 004-4v-7a4 4 0 00-4-4V6A5 5 0 007 6zm10 3H7a2 2 0 00-2 2v7a2 2 0 002 2h10a2 2 0 002-2v-7a2 2 0 00-2-2zm-2-3v1H9V6a3 3 0 116 0zm-1.5 8a1.5 1.5 0 10-2 1.415V16.5a.5.5 0 001 0v-1.085a1.5 1.5 0 001-1.415zm-1.5.5a.5.5 0 100-1 .5.5 0 000 1z"/></symbol><symbol viewBox="0 0 24 24" id="lock_open_icon_24" xmlns="http://www.w3.org/2000/svg"><path clip-rule="evenodd" d="M7 7V6a5 5 0 019.9-1h-2.07A3.001 3.001 0 009 6v1h8a4 4 0 014 4v7a4 4 0 01-4 4H7a4 4 0 01-4-4v-7a4 4 0 014-4zm10 2a2 2 0 012 2v7a2 2 0 01-2 2H7a2 2 0 01-2-2v-7a2 2 0 012-2h10zm-3.5 5a1.5 1.5 0 10-2 1.415V16.5a.5.5 0 001 0v-1.085a1.5 1.5 0 001-1.415zm-1 0a.5.5 0 11-1 0 .5.5 0 011 0z"/></symbol><symbol viewBox="0 0 24 24" id="menu_icon_24" xmlns="http://www.w3.org/2000/svg"><path clip-rule="evenodd" d="M22 5a1 1 0 01-1 1H3a1 1 0 010-2h18a1 1 0 011 1zm0 7a1 1 0 01-1 1H3a1 1 0 110-2h18a1 1 0 011 1zm-1 8a1 1 0 100-2H3a1 1 0 100 2h18z"/></symbol><symbol viewBox="0 0 24 24" id="mobile_icon_24" xmlns="http://www.w3.org/2000/svg"><path clip-rule="evenodd" d="M5 4a2 2 0 012-2h10a2 2 0 012 2v16a2 2 0 01-2 2H5V4zm12 0H7v11.5h10V4zM7 20v-3.5h10V20H7zm4-2.5a.5.5 0 000 1h2a.5.5 0 000-1h-2z"/></symbol><symbol viewBox="0 0 4 16" id="more_actions" xmlns="http://www.w3.org/2000/svg"><path d="M2 0a1.5 1.5 0 110 3 1.5 1.5 0 010-3zM2 13a1.5 1.5 0 110 3 1.5 1.5 0 010-3zM3.5 8a1.5 1.5 0 10-3 0 1.5 1.5 0 003 0z"/></symbol><symbol viewBox="0 0 24 24" id="notification_icon_24" xmlns="http://www.w3.org/2000/svg"><path clip-rule="evenodd" d="M12 3a1 1 0 100-2 1 1 0 000 2zm2.83 17h6.788l-.724-1.447L19 14.763V10c0-1.713-.57-3.459-1.753-4.79C16.048 3.863 14.271 3 12 3s-4.048.862-5.248 2.21C5.57 6.542 5 8.288 5 10V14.764l-1.895 3.789L2.382 20H9.17a3.001 3.001 0 005.66 0zm-1.098 0h-3.465a2 2 0 003.465 0zM6 15h1v.236l-.106.211L5.618 18h12.764l-1.277-2.553-.105-.21V15h1-1V10c0-1.287-.43-2.541-1.248-3.46C14.952 5.637 13.729 5 12 5c-1.729 0-2.952.638-3.753 1.54C7.43 7.458 7 8.712 7 10V15H6z"/></symbol><symbol viewBox="0 0 24 24" id="overflow_alt_icon_24" xmlns="http://www.w3.org/2000/svg"><path clip-rule="evenodd" d="M17 12c0 1.1.9 2 2 2s2-.9 2-2-.9-2-2-2-2 .9-2 2zm-3 0c0-1.1-.9-2-2-2s-2 .9-2 2 .9 2 2 2 2-.9 2-2zm-7 0c0-1.1-.9-2-2-2s-2 .9-2 2 .9 2 2 2 2-.9 2-2z"/></symbol><symbol viewBox="0 0 24 24" id="overflow_icon_24" xmlns="http://www.w3.org/2000/svg"><path clip-rule="evenodd" d="M12 7c1.1 0 2-.9 2-2s-.9-2-2-2-2 .9-2 2 .9 2 2 2zm0 3c-1.1 0-2 .9-2 2s.9 2 2 2 2-.9 2-2-.9-2-2-2zm0 7c-1.1 0-2 .9-2 2s.9 2 2 2 2-.9 2-2-.9-2-2-2z"/></symbol><symbol viewBox="0 0 24 24" id="pause_icon_24" xmlns="http://www.w3.org/2000/svg"><path clip-rule="evenodd" d="M6 5h2v14H6V5zM4 3h6v18H4V3zm12 2h2v14h-2V5zm-2-2h6v18h-6V3z"/></symbol><symbol viewBox="0 0 24 24" id="phone_icon_24" xmlns="http://www.w3.org/2000/svg"><path clip-rule="evenodd" d="M10.22 8.204c.267-.244.8-.733.667-1.51-.045-.334-.2-.6-.356-.823a10.844 10.844 0 00-.952-1.21c-.427-.483-1.975-2.235-2.735-2.566L6.71 2.05c-.533-.133-1.021 0-1.488.378-.6.511-1.2 1.11-1.8 1.866-.51.622-1.021 1.333-1.266 2.177-.088.267-.4 1.378.223 2.91.11.378.644 2.155 2.221 4.088.978 1.2 3.532 4.199 6.265 6.154 1.888 1.333 3.42 1.888 3.71 1.977.732.311 1.377.4 1.888.4.555 0 .933-.111 1.066-.155.844-.245 1.533-.756 2.177-1.267.755-.6 1.355-1.2 1.866-1.8.378-.466.511-.954.378-1.488v-.066l-.023-.067c-.331-.76-2.083-2.308-2.566-2.735l-.122-.109a10.844 10.844 0 00-1.088-.844c-.222-.133-.489-.289-.822-.355-.777-.134-1.288.422-1.51.666l-.021.025c-.017.022-.037.049-.068.064-.062.062-.129.138-.2.22a5.834 5.834 0 01-.267.291 8.458 8.458 0 01-.733.8c-.355-.111-1.066-.556-1.422-.844-1.466-1.2-2.843-2.555-3.399-3.355l-.022-.022c-.6-.844-.8-1.266-.866-1.466.178-.2.577-.556.8-.734.2-.155.377-.31.51-.466l.09-.089zm-2.039 4.077c.763 1.028 2.239 2.439 3.66 3.602l.006.005c.27.22.618.455.938.648.281.17.724.42 1.148.553l1.08.337.846-.751c.291-.26.675-.692.898-.963.108-.112.2-.217.261-.287l.018-.02.058-.067c.039-.034.073-.067.103-.098.239.17.47.358.713.568l.12.107.01.01a29.54 29.54 0 011.046.96c.288.275.56.551.77.792l.011.013a11.24 11.24 0 01-1.405 1.322c-.642.509-1.06.787-1.49.911l-.038.012-.038.012-.024.007a1.815 1.815 0 01-.409.046c-.27 0-.646-.045-1.107-.241l-.095-.04-.098-.03-.078-.027a10.947 10.947 0 01-.896-.385 15.475 15.475 0 01-2.166-1.284c-2.497-1.789-4.907-4.603-5.872-5.787l-.001-.001c-1.339-1.64-1.777-3.131-1.853-3.388l-.028-.095-.037-.092c-.2-.495-.237-.883-.231-1.134a1.768 1.768 0 01.046-.368.455.455 0 01.007-.024l.013-.038.01-.039c.127-.437.418-.888.891-1.463l.01-.013.011-.013c.439-.553.874-1.004 1.309-1.394l.026.023c.24.21.516.48.793.768a29.567 29.567 0 01.969 1.058l.107.12c.21.244.4.477.572.718l-.102.102-.05.058s-.015.017-.053.051c-.04.036-.094.082-.167.139l-.011.008-.01.009c-.258.205-.758.642-1.046.966l-.768.864.365 1.097c.162.484.499 1.099 1.134 1.992l.097.137.027.027z"/></symbol><symbol viewBox="0 0 24 24" id="photo_icon_24" xmlns="http://www.w3.org/2000/svg"><path clip-rule="evenodd" d="M21 19V5H3v14h18zm2-14a2 2 0 00-2-2H3a2 2 0 00-2 2v14a2 2 0 002 2h18a2 2 0 002-2V5zm-7.966 5.26l.35.42 5 6a.5.5 0 01-.768.64l-4.65-5.58-2.612 2.614-.219.218-.293-.098L9.1 13.56l-4.788 3.83a.5.5 0 11-.624-.78l5-4 .212-.17.258.086 2.707.902 2.781-2.782.388-.387zM12 9a1 1 0 11-2 0 1 1 0 012 0zm-1 2a2 2 0 100-4 2 2 0 000 4z"/></symbol><symbol viewBox="0 0 24 24" id="play_alt_icon_24" xmlns="http://www.w3.org/2000/svg"><path clip-rule="evenodd" d="M16.902 11.74L9.5 7.096v9.869l7.402-5.225zM10.5 15.035V8.904l4.598 2.885-4.598 3.246z"/><path clip-rule="evenodd" d="M12 22c5.523 0 10-4.477 10-10S17.523 2 12 2 2 6.477 2 12s4.477 10 10 10zm8-10a8 8 0 11-16 0 8 8 0 0116 0z"/></symbol><symbol viewBox="0 0 24 24" id="play_icon_24" xmlns="http://www.w3.org/2000/svg"><path clip-rule="evenodd" d="M6 2.192l14.803 9.288L6 21.93V2.192zm2 3.616V18.07l9.197-6.492L8 5.808z"/></symbol><symbol viewBox="0 0 24 24" id="price_tag_icon_24" xmlns="http://www.w3.org/2000/svg"><path clip-rule="evenodd" d="M13.005 20l6.994-6.995v-.001l-8.992-8.998A.04.04 0 0011 4H4v6.999a.042.042 0 00.004.005L13.005 20zM2 11a2 2 0 00.587 1.415l9.003 8.998c.361.362.861.587 1.414.587.553 0 1.053-.224 1.414-.585l6.994-6.995a1.996 1.996 0 00.001-2.83l-8.998-9.005A2.008 2.008 0 0010.999 2H2v9zm8.999-7z"/><path d="M14.569 11.692c-.605-.605-1.311-.56-1.929-.325l-.56.204-1.463-1.477c.318-.254.776-.369 1.24-.26l-.05-.675c-.65-.14-1.21.089-1.623.439l-.44-.44-.356.357.427.44c-.58.706-.726 1.641-.032 2.335.636.636 1.324.51 2.068.235l.344-.127 1.565 1.578c-.375.363-1.037.529-1.61.312l-.019.72c.751.229 1.54.025 2.088-.51l.458.459.356-.357-.458-.47c.573-.7.662-1.77-.006-2.438zm-4.296-1.267l1.343 1.356-.153.05c-.363.122-.802.23-1.165-.133-.369-.369-.362-.859-.025-1.273zm3.806 1.897c.388.388.311.999.025 1.324l-1.445-1.458.236-.083c.426-.146.802-.165 1.184.217z"/><path clip-rule="evenodd" d="M8 9a1 1 0 110-2 1 1 0 010 2z"/></symbol><symbol viewBox="0 0 24 24" id="printer_icon_24" xmlns="http://www.w3.org/2000/svg"><path clip-rule="evenodd" d="M8 4h8v1H8V4zm10 0v1h5v12a2 2 0 01-2 2h-2v-2h2V7H3v10h2v2H3a2 2 0 01-2-2V5h5V2h12v2zm1 6a1 1 0 11-2 0 1 1 0 012 0zM8 16h8v4H8v-4zm-2-2h12v8H6v-8zM5 9.5a.5.5 0 000 1h6a.5.5 0 000-1H5z"/></symbol><symbol viewBox="0 0 24 24" id="promotions_icon_24" xmlns="http://www.w3.org/2000/svg"><path clip-rule="evenodd" d="M12.883 11.716c.756.342 1.134.873 1.134 1.593 0 .531-.216.963-.639 1.287a1.982 1.982 0 01-1.08.441l-.009.657h-.504v-.648a2.03 2.03 0 01-1.07-.306 2.07 2.07 0 01-.766-.81l.522-.495c.117.27.306.495.567.657.252.171.522.261.792.261l.01-2.223-.334-.153c-.324-.144-.558-.27-.702-.396-.396-.306-.594-.72-.594-1.233 0-.468.171-.864.531-1.179.288-.252.666-.396 1.143-.45l.01-.612h.503v.621c.648.054 1.134.333 1.458.837l-.44.513c-.262-.414-.613-.639-1.063-.693l-.009 2.08.54.251zm-1.16-.504l.143.072.01-1.908c-.27.036-.487.126-.649.288-.162.162-.234.378-.234.63 0 .162.036.306.117.432.081.126.171.225.261.288.09.063.207.126.351.198zm1.214 2.862a.892.892 0 00.288-.666c0-.252-.063-.45-.18-.603a1.525 1.525 0 00-.504-.387l-.225-.108-.009 2.052c.234-.009.441-.108.63-.288z"/><path clip-rule="evenodd" d="M12.483 1.172a.765.765 0 00-.966 0L9.797 2.57a.765.765 0 01-.604.162l-2.19-.352a.765.765 0 00-.835.483l-.79 2.071a.765.765 0 01-.443.443l-2.071.79a.765.765 0 00-.483.836l.352 2.189a.765.765 0 01-.162.604l-1.4 1.72a.765.765 0 000 .966l1.4 1.72c.137.169.196.389.162.604l-.352 2.19a.765.765 0 00.483.835l2.071.79a.765.765 0 01.443.443l.79 2.071c.129.339.478.54.836.483l2.189-.352a.765.765 0 01.604.162l1.72 1.4a.765.765 0 00.966 0l1.72-1.4a.765.765 0 01.604-.162l2.19.352a.765.765 0 00.835-.483l.79-2.071a.765.765 0 01.443-.443l2.071-.79a.765.765 0 00.483-.836l-.352-2.189a.765.765 0 01.162-.604l1.4-1.72a.765.765 0 000-.966l-1.4-1.72a.765.765 0 01-.162-.604l.352-2.19a.765.765 0 00-.483-.835l-2.071-.79a.765.765 0 01-.443-.443l-.79-2.071a.765.765 0 00-.836-.483l-2.189.352a.765.765 0 01-.604-.162l-1.72-1.4zm.432 2.981L12 3.41l-.915.744c-.62.505-1.426.72-2.216.594L7.704 4.56l-.42 1.102a2.805 2.805 0 01-1.622 1.622l-1.102.42.187 1.165c.127.79-.09 1.596-.594 2.216L3.41 12l.744.915c.505.62.72 1.426.594 2.216l-.187 1.165 1.102.42a2.805 2.805 0 011.622 1.622l.42 1.102 1.165-.187c.79-.127 1.596.09 2.216.594l.915.744.915-.744a2.805 2.805 0 012.216-.594l1.165.187.42-1.102a2.805 2.805 0 011.622-1.622l1.102-.42-.187-1.165c-.127-.79.09-1.596.594-2.216L20.59 12l-.744-.915a2.805 2.805 0 01-.594-2.216l.187-1.165-1.102-.42a2.805 2.805 0 01-1.622-1.622l-.42-1.102-1.165.187a2.805 2.805 0 01-2.216-.594z"/></symbol><symbol viewBox="0 0 24 24" id="reciept_icon_24" xmlns="http://www.w3.org/2000/svg"><path d="M8 7a.5.5 0 000 1h8a.5.5 0 000-1H8zM8 11a.5.5 0 000 1h8a.5.5 0 000-1H8zM7.5 15.5A.5.5 0 018 15h4a.5.5 0 010 1H8a.5.5 0 01-.5-.5z"/><path clip-rule="evenodd" d="M21 23l-3-1.158L15 23l-3-1.158L9 23l-3-1.158L3 23V3a2 2 0 012-2h16v22zm-2-2.916l-1-.386-3 1.158-3-1.158-3 1.158-3-1.158-1 .386V3h14v17.084z"/></symbol><symbol viewBox="0 0 24 24" id="redo_icon_24" xmlns="http://www.w3.org/2000/svg"><path clip-rule="evenodd" d="M18.319 6.665L16.97 3l-.77 1.334a9 9 0 103.595 12.46l-1.732-1A7 7 0 1115.2 6.069l-.73 1.262 3.849-.665z"/></symbol><symbol viewBox="0 0 21 21" id="refresh_icon_24" xmlns="http://www.w3.org/2000/svg"><path clip-rule="evenodd" d="M13.393 5.196l4.965-.598L16.393 0l-1 1.732A9.999 9.999 0 005.4 1.725 9.961 9.961 0 00.425 10.95l2.004.001A7.97 7.97 0 016.4 3.455a7.999 7.999 0 017.995.006l.998-1.729-2 3.464zm-5.93 9.735l-4.963.598 1.964 4.598 1-1.732a9.999 9.999 0 009.994.007 9.961 9.961 0 004.974-9.225l-2.003-.001a7.97 7.97 0 01-3.972 7.496 7.999 7.999 0 01-7.995-.006l-.998 1.729 2-3.464z"/></symbol><symbol viewBox="0 0 24 24" id="reorder_icon_24" xmlns="http://www.w3.org/2000/svg"><path clip-rule="evenodd" d="M12.142 8.485a1 1 0 01-1.414 0L8.071 5.828V18h-2V5.828L3.414 8.485A1 1 0 112 7.071l4.364-4.364L7.071 2l.707.707 4.364 4.364a1 1 0 010 1.414zM22 15.343a1 1 0 00-1.414 0L17.929 18V5.828h-2V18l-2.657-2.657a1 1 0 10-1.414 1.414l4.364 4.364.707.707.707-.707L22 16.757a1 1 0 000-1.414z"/></symbol><symbol viewBox="0 0 24 24" id="repeat_icon_24" xmlns="http://www.w3.org/2000/svg"><path clip-rule="evenodd" d="M13 6V4L9 7l4 3-.001-2H16l.2.005A4 4 0 0116 16v2l.225-.004A6 6 0 0016 6h-3zM8 8V6l-.225.004A6 6 0 008 18h3v2l4-3-4-3v2H8l-.2-.005A4 4 0 018 8z"/></symbol><symbol viewBox="0 0 24 24" id="report_issue_icon_24" xmlns="http://www.w3.org/2000/svg"><path clip-rule="evenodd" d="M21 21.368L18.098 19H3a2 2 0 01-2-2V3h20a2 2 0 012 2v18l-2-1.632zM3 17V5h18v13.786l-1.637-1.335L18.81 17H3zm8-10l.167 5h1.655L13 7h-2zm1 8a1 1 0 100-2 1 1 0 000 2z"/></symbol><symbol viewBox="0 0 24 24" id="scan_icon_24" xmlns="http://www.w3.org/2000/svg"><path clip-rule="evenodd" d="M2 16.2a2 2 0 012 2V20h1.8a2 2 0 012 2H3a1 1 0 01-1-1v-4.8zm20 0V21a1 1 0 01-1 1h-4.8a2 2 0 012-2H20v-1.8a2 2 0 012-2zm-3.5-4.7a.5.5 0 010 1h-13a.5.5 0 010-1h13zM21 2a1 1 0 011 1v4.8a2 2 0 01-2-2V4h-1.8a2 2 0 01-1.994-1.85L16.2 2H21zM7.8 2l-.005.15A2 2 0 015.8 4H4v1.799a2 2 0 01-2 2V3a1 1 0 011-1h4.8z"/></symbol><symbol viewBox="0 0 24 24" id="search_icon_24" xmlns="http://www.w3.org/2000/svg"><path clip-rule="evenodd" d="M16.006 14.592a7.5 7.5 0 10-1.549 1.28l5.836 5.835 1.414-1.414-5.7-5.7zM16 9.5a5.5 5.5 0 11-11 0 5.5 5.5 0 0111 0z"/></symbol><symbol viewBox="0 0 24 24" id="secure_icon_24" xmlns="http://www.w3.org/2000/svg"><path clip-rule="evenodd" d="M12.427 1.055l-.326-.113-.327.113-7.99 2.763-.673.232v.712l-.003 8.146c-.052.901.16 2.014.738 3.225.88 1.841 2.463 3.561 4.806 5.097.834.547 1.759 1.066 2.778 1.557l.237.114.434.209.433-.21.237-.113c1.02-.49 1.945-1.01 2.778-1.557 2.344-1.536 3.927-3.256 4.806-5.097.533-1.117.754-2.147.745-3.005v-.023l-.001-.022-.015-.272.006-8.047V4.05l-.673-.233-7.99-2.763zM5.108 12.94l.003-7.465 6.99-2.417 6.989 2.417-.006 7.363v.028l.001.028.016.275c0 .507-.134 1.229-.55 2.102-.683 1.43-1.975 2.895-4.098 4.287-.7.459-1.483.903-2.352 1.331a21.978 21.978 0 01-2.353-1.331C7.625 18.166 6.333 16.7 5.651 15.27c-.466-.975-.578-1.76-.545-2.266l.002-.033v-.032zm9.296-3.172a.5.5 0 11.707.707l-3.536 3.535a.5.5 0 01-.707 0l-1.414-1.414a.5.5 0 11.707-.707l1.061 1.06 3.182-3.181z"/></symbol><symbol viewBox="0 0 24 24" id="send_icon_24" xmlns="http://www.w3.org/2000/svg"><path clip-rule="evenodd" d="M22.249 3.118L23.072 1l-2.118.824-18 7L1 9.584l1.82 1.04 6.764 3.865 3.864 6.763 1.04 1.82.76-1.954 7-18zm-11.65 9.648L5.634 9.928l12.77-4.967-7.803 7.805zm.708.707l2.838 4.966L19.11 5.67l-7.804 7.804z"/></symbol><symbol viewBox="0 0 24 24" id="service_icon_24" xmlns="http://www.w3.org/2000/svg"><path clip-rule="evenodd" d="M15.003 10.165l6.995 6.996A3.426 3.426 0 0122 21.997 3.398 3.398 0 0119.582 23a3.4 3.4 0 01-2.42-1.003l-6.992-6.993c-.649.19-1.329.29-2.024.29A7.102 7.102 0 013.09 13.2a7.152 7.152 0 01-1.596-7.664l.518-1.327 4.375 4.375 2.036-2.036L4.03 2.152l1.248-.548A7.158 7.158 0 018.165 1c1.904 0 3.693.74 5.038 2.084a7.161 7.161 0 011.8 7.081zM2.881 7.713a5.28 5.28 0 001.526 4.17 5.251 5.251 0 003.74 1.548c1.412 0 2.74-.55 3.739-1.548a5.296 5.296 0 000-7.48 5.312 5.312 0 00-4.46-1.49l3.631 3.635-4.67 4.671L2.88 7.713zM18.48 20.68c.588.59 1.612.59 2.2 0a1.559 1.559 0 000-2.202l-6.501-6.502c-.19.298-.402.587-.639.86l4.811 4.813a.5.5 0 01-.707.707l-4.811-4.812a7.37 7.37 0 01-.854.634l6.5 6.502z"/></symbol><symbol viewBox="0 0 24 24" id="settings_icon_24" xmlns="http://www.w3.org/2000/svg"><path clip-rule="evenodd" d="M12 16a4 4 0 100-8 4 4 0 000 8zm3-4a3 3 0 11-6 0 3 3 0 016 0z"/><path clip-rule="evenodd" d="M14.749 1l.932 2.768a9.105 9.105 0 011.68.961l2.89-.585L23 8.856l-1.957 2.185a8.975 8.975 0 010 1.918L23 15.144l-2.75 4.712-2.89-.585c-.52.376-1.082.7-1.679.96L14.75 23H9.251l-.932-2.768a9.105 9.105 0 01-1.68-.961l-2.89.585L1 15.144l1.957-2.185a9.002 9.002 0 010-1.918L1 8.856l2.75-4.712 2.89.585a9.11 9.11 0 011.679-.96L9.25 1h5.498zm4.496 5.388l1.294 2.218-1.58 1.763.095.885a6.976 6.976 0 010 1.492l-.095.885 1.58 1.763-1.294 2.218-2.347-.475-.71.513a7.106 7.106 0 01-1.31.75l-.81.355L13.312 21h-2.624l-.756-2.245-.81-.355a7.105 7.105 0 01-1.31-.75l-.71-.513-2.347.475-1.294-2.218 1.58-1.763-.095-.885a7.004 7.004 0 010-1.492l.095-.885-1.58-1.763 1.294-2.218 2.346.475.71-.513a7.111 7.111 0 011.311-.75l.81-.355L10.688 3h2.624l.756 2.245.81.355c.465.204.904.456 1.31.75l.71.513 2.347-.475z"/></symbol><symbol viewBox="0 0 24 24" id="share_icon_24" xmlns="http://www.w3.org/2000/svg"><path clip-rule="evenodd" d="M7.353 5.854a.5.5 0 00.708 0l3.389-3.39V15h1V2.464l3.389 3.39a.5.5 0 10.707-.708L12.45 1.05V1h-.05l-.097-.096a.5.5 0 00-.707 0L11.5 1h-.05v.05L7.353 5.146a.5.5 0 000 .708zM4 7a2 2 0 00-2 2v11a2 2 0 002 2h16a2 2 0 002-2V9a2 2 0 00-2-2h-6v2h6v11H4V9h6V7H4z"/></symbol><symbol viewBox="0 0 24 24" id="show_icon_24" xmlns="http://www.w3.org/2000/svg"><path clip-rule="evenodd" d="M12.001 8c-3.556 0-6.727 2.884-7.925 4.124a.257.257 0 000 .361c1.198 1.24 4.37 4.124 7.925 4.124 3.556 0 6.727-2.884 7.925-4.124a.257.257 0 000-.361C18.728 10.884 15.557 8 12.001 8zm0 10.609c-4.167 0-7.655-2.966-9.363-4.734a2.251 2.251 0 010-3.141C4.346 8.966 7.834 6 12.001 6s7.655 2.966 9.363 4.734c.851.881.851 2.26 0 3.141-1.708 1.768-5.196 4.734-9.363 4.734zm0-8.39a2.087 2.087 0 00-1.16 3.818 2.087 2.087 0 003.244-1.733 2.083 2.083 0 00-2.084-2.084zm0 5.17a3.08 3.08 0 01-3.084-3.085 3.088 3.088 0 014.81-2.557 3.083 3.083 0 011.358 2.557 3.087 3.087 0 01-3.084 3.085z"/></symbol><symbol viewBox="0 0 24 24" id="sign_out_icon_24" xmlns="http://www.w3.org/2000/svg"><path clip-rule="evenodd" d="M4 4a2 2 0 012-2h14v6.667h-2V4H6v16h12v-4.667h2V22H6a2 2 0 01-2-2V4zm6.464 7H23v1H10.464l3.39 3.39a.5.5 0 01-.708.706L9.05 12H9v-.05l-.096-.096a.5.5 0 010-.707L9 11.05V11h.05l4.096-4.096a.5.5 0 01.708.707L10.464 11z"/></symbol><symbol viewBox="0 0 24 24" id="sku_count_icon_24" xmlns="http://www.w3.org/2000/svg"><path clip-rule="evenodd" d="M11 20v-7H4v7h7zm-5-5h3v3H6v-3zm5-4V4H4v7h7zm9 0V4h-7v7h7zM6 6h3v3H6V6zm9 0h3v3h-3V6zm1 7.5a.5.5 0 011 0V16h2.5a.5.5 0 010 1H17v2.5a.5.5 0 01-1 0V17h-2.5a.5.5 0 010-1H16v-2.5z"/></symbol><symbol viewBox="0 0 24 24" id="sound_off_icon_24" xmlns="http://www.w3.org/2000/svg"><path clip-rule="evenodd" d="M15 23.27V1L7.638 7.135H2v10h5.638L15 23.27zM8.362 9.135L13 5.27V19l-4.638-3.865H8v-6h.362zM7 9.135v6H4v-6h3z"/><path d="M22.354 9.489a.5.5 0 00-.708-.708L19.5 10.928 17.354 8.78a.5.5 0 00-.708.708l2.147 2.146-2.147 2.146a.5.5 0 00.708.708l2.146-2.147 2.146 2.147a.5.5 0 00.708-.708l-2.147-2.146 2.147-2.146z"/></symbol><symbol viewBox="0 0 24 24" id="sound_on_icon_24" xmlns="http://www.w3.org/2000/svg"><path clip-rule="evenodd" d="M15 1L7.638 7.135H2v10h5.638L15 23.27V1zm-2 4.27V19l-4.638-3.865H8v-6h.362L13 5.27zM7 9.135H4v6h3v-6z"/><path d="M16.5 7.135a.5.5 0 01.5-.5 5.5 5.5 0 110 11 .5.5 0 110-1 4.5 4.5 0 100-9 .5.5 0 01-.5-.5z"/><path d="M17 9.5a.5.5 0 000 1 1.5 1.5 0 010 3 .5.5 0 000 1 2.5 2.5 0 000-5z"/></symbol><symbol viewBox="0 0 24 24" id="special_icon_24" xmlns="http://www.w3.org/2000/svg"><path clip-rule="evenodd" d="M20 12a8 8 0 11-16 0 8 8 0 0116 0zm-8 10c5.523 0 10-4.477 10-10S17.523 2 12 2 2 6.477 2 12s4.477 10 10 10zm.898-11.236L12 8l-.898 2.764H8.196l2.35 1.708-.897 2.764L12 13.528l2.351 1.708-.898-2.764 2.351-1.708h-2.906z"/></symbol><symbol viewBox="0 0 24 24" id="speed_icon_24" xmlns="http://www.w3.org/2000/svg"><path clip-rule="evenodd" d="M12 2h.024C17.535 2.013 22 6.485 22 12c0 5.523-4.477 10-10 10S2 17.523 2 12a9.97 9.97 0 013.026-7.166l1.017.826c.036.023.07.049.103.077l.212.179.233.19-.004.004 6.059 5.127a1 1 0 01-1.292 1.526l-6.06-5.127A8 8 0 1013 4.062V6a1 1 0 11-2 0V3a1 1 0 011-1zM8 12a1 1 0 11-2 0 1 1 0 012 0zm10 0a1 1 0 11-2 0 1 1 0 012 0zm-6 6a1 1 0 100-2 1 1 0 000 2z"/></symbol><symbol viewBox="0 0 24 24" id="subtract_icon_24" xmlns="http://www.w3.org/2000/svg"><path clip-rule="evenodd" d="M4 12a1 1 0 011-1h14a1 1 0 110 2H5a1 1 0 01-1-1z"/></symbol><symbol viewBox="0 0 24 24" id="sync_icon_24" xmlns="http://www.w3.org/2000/svg"><path clip-rule="evenodd" d="M14.985 7.196l4.964-.598L17.985 2l-1 1.732a9.999 9.999 0 00-9.994-.007 9.961 9.961 0 00-4.974 9.225l2.003.001a7.97 7.97 0 013.972-7.496 7.999 7.999 0 017.995.006l.998-1.729-2 3.464zm-5.93 9.735l-4.964.598 1.965 4.598 1-1.732a9.999 9.999 0 009.994.007 9.961 9.961 0 004.974-9.225l-2.004-.001a7.97 7.97 0 01-3.971 7.496 7.999 7.999 0 01-7.995-.006l-.998 1.729 2-3.464z"/></symbol><symbol viewBox="0 0 18 22" id="table_history_icon_24" xmlns="http://www.w3.org/2000/svg"><path clip-rule="evenodd" d="M5.845.607L5.585 0H0v22h5.586l.26-.607A3.545 3.545 0 016.9 20.006a3.363 3.363 0 014.198 0c.455.36.821.837 1.056 1.387l.26.607H18V0h-5.586l-.26.607a3.547 3.547 0 01-1.056 1.386 3.364 3.364 0 01-4.197 0A3.546 3.546 0 015.845.607zM2 20V2h2.31c.35.603.809 1.133 1.35 1.561a5.363 5.363 0 006.68 0c.541-.428 1-.958 1.35-1.561H16v18h-2.31a5.534 5.534 0 00-1.35-1.561 5.363 5.363 0 00-6.68 0c-.541.428-1 .958-1.35 1.561H2zM9.898 9.764L9 7l-.898 2.764H5.196l2.35 1.708-.897 2.764L9 12.528l2.351 1.708-.898-2.764 2.351-1.708H9.898z"/></symbol><symbol viewBox="0 0 24 24" id="tag_icon_24" xmlns="http://www.w3.org/2000/svg"><path clip-rule="evenodd" d="M19.998 13.006L13.005 20l-.001-.002-8.999-8.993A.042.042 0 014 10.998V4h6.999a.04.04 0 01.008.006l8.991 8.998H20l-.001.002zM2 11V2H10.999c.553 0 1.052.225 1.416.585l8.998 9.005a1.996 1.996 0 01-.001 2.83l-6.994 6.995a1.994 1.994 0 01-1.414.585 1.991 1.991 0 01-1.414-.587l-9.003-8.998A2 2 0 012 11zm11.004 9zM10.5 8.5a2 2 0 10-4 0 2 2 0 004 0zm-2-1a1 1 0 110 2 1 1 0 010-2z"/></symbol><symbol viewBox="0 0 24 24" id="target_icon_24" xmlns="http://www.w3.org/2000/svg"><path clip-rule="evenodd" d="M12 7a1 1 0 01-1-1v-.93A7.005 7.005 0 005.07 11H6a1 1 0 110 2h-.93A7.004 7.004 0 0011 18.93V18a1 1 0 112 0v.93A7.004 7.004 0 0018.93 13H18a1 1 0 110-2h.93A7.004 7.004 0 0013 5.07V6a1 1 0 01-1 1zm1-3.945A9.004 9.004 0 0120.945 11H23v2h-2.055A9.004 9.004 0 0113 20.945V23h-2v-2.055A9.004 9.004 0 013.055 13H1v-2h2.055A9.004 9.004 0 0111 3.055V1h2v2.055zM13 12a1 1 0 11-2 0 1 1 0 012 0z"/></symbol><symbol viewBox="0 0 24 24" id="tasks_icon_24" xmlns="http://www.w3.org/2000/svg"><path clip-rule="evenodd" d="M19 5v14H5V5h14zm0-2a2 2 0 012 2v14a2 2 0 01-2 2H5a2 2 0 01-2-2V5a2 2 0 012-2h14zm-4.697 6.768a.5.5 0 11.707.707l-3.535 3.535a.5.5 0 01-.707 0l-1.414-1.414a.5.5 0 11.707-.707l1.06 1.06 3.182-3.181z"/></symbol><symbol viewBox="0 0 24 24" id="text_bold_icon_24" xmlns="http://www.w3.org/2000/svg"><path d="M18 14.983c0-1.725-1.172-2.902-2.94-3.328v-.04c1.069-.366 2.076-1.543 2.076-3.085s-.863-2.455-1.809-2.942c-.946-.487-2.2-.588-3.495-.588H7v14h5.798C15.45 19 18 17.985 18 14.983zm-4.133-5.966c0 1.38-1.11 1.644-2.261 1.644H10.31V7.435h1.378c1.11 0 2.18.264 2.18 1.582zm.761 5.702c0 1.46-1.254 1.785-2.488 1.785h-1.83v-3.57h1.83c1.234 0 2.488.324 2.488 1.785z"/></symbol><symbol viewBox="0 0 24 24" id="text_italic_icon_24" xmlns="http://www.w3.org/2000/svg"><path d="M17 5h-6.334l-.328 1.328h1.766c.108 0 .172.04.205.085.032.043.055.116.026.222l-.001.003-2.797 10.598a.612.612 0 01-.218.306.58.58 0 01-.344.13H7.328L7 19h6.542l.328-1.328h-1.974c-.108 0-.172-.04-.205-.085-.032-.043-.055-.116-.026-.222l.001-.003 2.797-10.598a.612.612 0 01.218-.306.58.58 0 01.344-.13h1.647L17 5z"/></symbol><symbol viewBox="0 0 24 24" id="text_underline_icon_24" xmlns="http://www.w3.org/2000/svg"><path clip-rule="evenodd" d="M9 6a1 1 0 00-2 0v6a5 5 0 0010 0V6a1 1 0 10-2 0v6a3 3 0 11-6 0V6zM4 19.5a.5.5 0 000 1h16a.5.5 0 000-1H4z"/></symbol><symbol viewBox="0 0 24 24" id="ticket_add_icon_24" xmlns="http://www.w3.org/2000/svg"><path d="M11.5 9.5a.5.5 0 011 0v2h2a.5.5 0 010 1h-2v2a.5.5 0 11-1 0v-2h-2a.5.5 0 110-1h2v-2z"/><path clip-rule="evenodd" d="M8.845 1.607L8.585 1H3v22h5.586l.26-.607A3.545 3.545 0 019.9 21.006a3.363 3.363 0 014.198 0c.455.36.821.837 1.056 1.387l.26.607H21V1h-5.586l-.26.607a3.547 3.547 0 01-1.056 1.386 3.363 3.363 0 01-4.197 0 3.546 3.546 0 01-1.056-1.386zM5 21V3h2.31c.35.603.809 1.133 1.35 1.561a5.363 5.363 0 006.68 0c.541-.428 1-.958 1.35-1.561H19v18h-2.31a5.534 5.534 0 00-1.35-1.561 5.363 5.363 0 00-6.68 0c-.541.428-1 .958-1.35 1.561H5z"/></symbol><symbol viewBox="0 0 24 24" id="ticket_close_icon_24" xmlns="http://www.w3.org/2000/svg"><path clip-rule="evenodd" d="M8.845 1.607L8.585 1H3v22h5.586l.26-.607A3.545 3.545 0 019.9 21.006a3.363 3.363 0 014.198 0c.455.36.821.837 1.056 1.387l.26.607H21V1h-5.586l-.26.607a3.547 3.547 0 01-1.056 1.386 3.363 3.363 0 01-4.197 0 3.546 3.546 0 01-1.056-1.386zM5 21V3h2.31c.35.603.809 1.133 1.35 1.561a5.363 5.363 0 006.68 0c.541-.428 1-.958 1.35-1.561H19v18h-2.31a5.534 5.534 0 00-1.35-1.561 5.363 5.363 0 00-6.68 0c-.541.428-1 .958-1.35 1.561H5zm9.303-11.232a.5.5 0 11.707.707l-3.535 3.535a.5.5 0 01-.707 0l-1.414-1.414a.5.5 0 11.707-.707l1.06 1.06 3.182-3.181z"/></symbol><symbol viewBox="0 0 24 24" id="ticket_icon_24" xmlns="http://www.w3.org/2000/svg"><path clip-rule="evenodd" d="M8.845 1.607L8.585 1H3v22h5.586l.26-.607A3.545 3.545 0 019.9 21.006a3.363 3.363 0 014.198 0c.455.36.821.837 1.056 1.387l.26.607H21V1h-5.586l-.26.607a3.547 3.547 0 01-1.056 1.386 3.363 3.363 0 01-4.197 0 3.546 3.546 0 01-1.056-1.386zM5 21V3h2.31c.35.603.809 1.133 1.35 1.561a5.363 5.363 0 006.68 0c.541-.428 1-.958 1.35-1.561H19v18h-2.31a5.534 5.534 0 00-1.35-1.561 5.363 5.363 0 00-6.68 0c-.541.428-1 .958-1.35 1.561H5zm7.898-10.236L12 8l-.898 2.764H8.196l2.35 1.708-.897 2.764L12 13.528l2.351 1.708-.898-2.764 2.351-1.708h-2.906z"/></symbol><symbol viewBox="0 0 24 24" id="tiles_icon_24" xmlns="http://www.w3.org/2000/svg"><path clip-rule="evenodd" d="M9 9V5H5v4h4zm2-4V3H3v8h8V5zm8 0v4h-4V5h4zm2-2v8h-8V3h8zm-2 12v4h-4v-4h4zm2-2v8h-8v-8h8zM9 15v4H5v-4h4zm2-2v8H3v-8h8z"/></symbol><symbol viewBox="0 0 24 24" id="time_icon_24" xmlns="http://www.w3.org/2000/svg"><path clip-rule="evenodd" d="M20 12a8 8 0 11-16 0 8 8 0 0116 0zm-8 10c5.523 0 10-4.477 10-10S17.523 2 12 2 2 6.477 2 12s4.477 10 10 10zm.5-16v5.662l4.686 1.874-.372.928-5-2-.314-.126V6h1z"/></symbol><symbol viewBox="0 0 24 24" id="todo_icon_24" xmlns="http://www.w3.org/2000/svg"><path clip-rule="evenodd" d="M19 5.636V4h-3v3H8V4H5v16h14V5.636zM15 6V4H9v2h6zm2-4H3v18a2 2 0 002 2h16V2h-4zm-2.697 8.768a.5.5 0 11.707.707l-3.535 3.535a.5.5 0 01-.707 0l-1.414-1.414a.5.5 0 11.707-.707l1.06 1.06 3.182-3.181z"/></symbol><symbol viewBox="0 0 24 24" id="transactions_icon_24" xmlns="http://www.w3.org/2000/svg"><path d="M15.647 6.652a.5.5 0 01.707.003l1.971 1.985a.5.5 0 01.003.702l-1.971 2.015a.5.5 0 11-.715-.7l1.14-1.164H7a.5.5 0 010-1h9.77L15.644 7.36a.5.5 0 01.002-.708zM8.353 17.348a.5.5 0 01-.707-.003L5.675 15.36a.5.5 0 01-.003-.702l1.971-2.015a.5.5 0 11.715.7l-1.14 1.164H17a.5.5 0 110 1H7.23l1.125 1.133a.5.5 0 01-.002.707z"/><path clip-rule="evenodd" d="M21 2a2 2 0 012 2v16a2 2 0 01-2 2H3a2 2 0 01-2-2V4a2 2 0 012-2h18zm0 2v16H3V4h18z"/></symbol><symbol viewBox="0 0 24 24" id="trashcan_icon_24" xmlns="http://www.w3.org/2000/svg"><path clip-rule="evenodd" d="M9 2v1h6V2H9zm7 1V1.5a.5.5 0 00-.5-.5h-7a.5.5 0 00-.5.5V3H3a1 1 0 00-1 1v1h1.112l.907 16.112A2 2 0 006.016 23h11.968a2 2 0 001.997-1.888L20.887 5H22V4a1 1 0 00-1-1h-5zm2.884 2H5.116l.9 16h11.968l.9-16zM10 8.5a.5.5 0 01.5.5v8a.5.5 0 01-1 0V9a.5.5 0 01.5-.5zm4.5.5a.5.5 0 00-1 0v8a.5.5 0 001 0V9z"/></symbol><symbol viewBox="0 0 24 24" id="undo_icon_24" xmlns="http://www.w3.org/2000/svg"><path clip-rule="evenodd" d="M5.477 6.665L6.825 3l.77 1.334A9 9 0 114 16.794l1.732-1a7 7 0 102.864-9.726l.729 1.262-3.848-.665z"/></symbol><symbol viewBox="0 0 7 4" id="up-arrow-filled_icon_24" xmlns="http://www.w3.org/2000/svg"><path d="M7 4L3.5 0 0 4h7z"/></symbol><symbol viewBox="0 0 24 24" id="up_icon_24" xmlns="http://www.w3.org/2000/svg"><path clip-rule="evenodd" d="M17.657 12.485a1 1 0 001.414-1.414l-6.364-6.364L12 4l-.707.707-6.364 6.364a1 1 0 101.414 1.414L11 7.828V20h2V7.828l4.657 4.657z"/></symbol><symbol viewBox="0 0 24 24" id="upload_alt_icon_24" xmlns="http://www.w3.org/2000/svg"><path clip-rule="evenodd" d="M17.027 7.93l-.504-1.064a5 5 0 00-9.472 1.417L6.805 10H5a2 2 0 100 4h3v2H5a4 4 0 010-8h.07a7.002 7.002 0 0113.261-1.99A5 5 0 0118 16h-2v-2h2a3 3 0 00.2-5.993l-1.173-.077zm-7.908 4.437a.5.5 0 00.707 0l2.16-2.16L12 21.5a.5.5 0 001 0l-.015-11.293 1.975 1.975a.5.5 0 10.707-.707L12.84 8.646a.5.5 0 00-.707 0L9.119 11.66a.5.5 0 000 .707z"/></symbol><symbol viewBox="0 0 24 24" id="upload_icon_24" xmlns="http://www.w3.org/2000/svg"><path clip-rule="evenodd" d="M7.705 6.074a.5.5 0 00.707.707l3.573-3.574v12.764a.5.5 0 101 0V3.207l3.39 3.39a.5.5 0 10.706-.708L12.84 1.646a.5.5 0 00-.707 0L7.705 6.074zM3 17h2v2h15v-2h2v2a2 2 0 01-2 2H5a2 2 0 01-2-2v-2z"/></symbol><symbol viewBox="0 0 24 24" id="user_add_icon_24" xmlns="http://www.w3.org/2000/svg"><path clip-rule="evenodd" d="M13 11a3 3 0 100-6 3 3 0 000 6zm5-3A5 5 0 118 8a5 5 0 0110 0zm-5 5a8 8 0 018 8h-2a6 6 0 00-12 0H5a8 8 0 018-8zM4 9a.5.5 0 00-.5.5v2h-2a.5.5 0 000 1h2v2a.5.5 0 001 0v-2h2a.5.5 0 000-1h-2v-2A.5.5 0 004 9z"/></symbol><symbol viewBox="0 0 24 24" id="user_group_icon_24" xmlns="http://www.w3.org/2000/svg"><path clip-rule="evenodd" d="M17.5 8a3 3 0 11-6 0 3 3 0 016 0zm-3 5a5 5 0 100-10 5 5 0 000 10zm0 0a8 8 0 018 8h-2a6 6 0 00-12 0h-2a8 8 0 018-8zm-9-4a1 1 0 100-2 1 1 0 000 2zm1.094.674a2 2 0 10-2.188 0A3.501 3.501 0 002 13h1a2.5 2.5 0 015 0h1a3.501 3.501 0 00-2.406-3.326z"/></symbol><symbol viewBox="0 0 24 24" id="user_icon_24" xmlns="http://www.w3.org/2000/svg"><path clip-rule="evenodd" d="M15 8a3 3 0 11-6 0 3 3 0 016 0zm-3 5a5 5 0 100-10 5 5 0 000 10zm0 0a8 8 0 018 8h-2a6 6 0 00-12 0H4a8 8 0 018-8z"/></symbol><symbol viewBox="0 0 24 24" id="video_icon_24" xmlns="http://www.w3.org/2000/svg"><path d="M6 10a1 1 0 100-2 1 1 0 000 2z"/><path clip-rule="evenodd" d="M17 8V6a2 2 0 00-2-2H3a2 2 0 00-2 2v12a2 2 0 002 2h12a2 2 0 002-2v-2l6 3V5l-6 3zm-2-2H3v12h12V6zm2 4.236v3.528l4 2V8.236l-4 2z"/></symbol><symbol viewBox="0 0 24 24" id="wallet_icon_24" xmlns="http://www.w3.org/2000/svg"><path clip-rule="evenodd" d="M5.446 4.003A7.93 7.93 0 015.662 4H18v1H5.5a.5.5 0 01-.054-.997zM18 7h3v12H5a2 2 0 01-2-2V5.1a.66.66 0 01.03-.211A2.5 2.5 0 005.5 7H18zM1 17V5.1c0-1.804 1.647-3.005 4.334-3.095C5.39 2.002 5.444 2 5.5 2H20v3h1a2 2 0 012 2v12a2 2 0 01-2 2H5a4 4 0 01-4-4zm11.9-4.267c.756.342 1.134.873 1.134 1.593 0 .531-.216.963-.639 1.287a1.982 1.982 0 01-1.08.441l-.009.657h-.504v-.648a2.03 2.03 0 01-1.07-.306 2.071 2.071 0 01-.766-.81l.522-.495c.117.27.306.495.567.657.252.171.522.261.792.261l.01-2.223-.334-.153c-.324-.144-.558-.27-.702-.396-.396-.306-.594-.72-.594-1.233 0-.468.171-.864.531-1.179.288-.252.666-.396 1.143-.45l.01-.612h.503v.621c.648.054 1.134.333 1.458.837l-.44.513c-.262-.414-.613-.639-1.063-.693l-.009 2.079.54.252zm-1.16-.504l.143.072.01-1.908c-.27.036-.487.126-.649.288-.162.162-.234.378-.234.63 0 .162.036.306.117.432.081.126.171.225.261.288.09.063.207.126.351.198zm1.214 2.862a.892.892 0 00.288-.666c0-.252-.063-.45-.18-.603a1.525 1.525 0 00-.504-.387l-.225-.108-.009 2.052c.234-.009.441-.108.63-.288z"/></symbol><symbol viewBox="0 0 24 24" id="warning_icon_24" xmlns="http://www.w3.org/2000/svg"><path clip-rule="evenodd" d="M20 12a8 8 0 11-16 0 8 8 0 0116 0zm-8 10c5.523 0 10-4.477 10-10S17.523 2 12 2 2 6.477 2 12s4.477 10 10 10zM11 7l.167 7h1.654L13 7h-2zm1 10a1 1 0 100-2 1 1 0 000 2z"/></symbol><symbol viewBox="0 0 24 24" id="website_icon_24" xmlns="http://www.w3.org/2000/svg"><path clip-rule="evenodd" d="M20 19V5H4v14h16zm2-14a2 2 0 00-2-2H4a2 2 0 00-2 2v14a2 2 0 002 2h16a2 2 0 002-2V5zM7 9a1 1 0 100-2 1 1 0 000 2zm4-1a1 1 0 11-2 0 1 1 0 012 0zm2 1a1 1 0 100-2 1 1 0 000 2zm-8 1.5a.5.5 0 000 1h14a.5.5 0 000-1H5z"/></symbol><symbol viewBox="0 0 24 24" id="zoom_in_icon_24" xmlns="http://www.w3.org/2000/svg"><path clip-rule="evenodd" d="M11 16a6 6 0 100-12 6 6 0 000 12zm4.32.734a8 8 0 111.54-1.288l4.847 4.847-1.414 1.414-4.973-4.973zM11 7a.5.5 0 00-.5.5v2h-2a.5.5 0 000 1h2v2a.5.5 0 001 0v-2h2a.5.5 0 000-1h-2v-2A.5.5 0 0011 7z"/></symbol><symbol viewBox="0 0 24 24" id="zoom_out_icon_24" xmlns="http://www.w3.org/2000/svg"><path clip-rule="evenodd" d="M11 16a6 6 0 100-12 6 6 0 000 12zm4.32.734a8 8 0 111.54-1.288l4.847 4.847-1.414 1.414-4.973-4.973zM13.5 9.5a.5.5 0 010 1h-5a.5.5 0 010-1h5z"/></symbol></svg>